<?xml version="1.0" encoding="UTF-8"?>
<svg id="Layer_2" data-name="Layer 2" xmlns="http://www.w3.org/2000/svg" viewBox="0 0 311.45 393.72">
  <g id="Layer_1-2" data-name="Layer 1">
    <g>
      <path d="M177.46,144.23c4.64,.64,9.26,1.37,13.91,1.9,16.71,1.92,30.74,8.71,39.96,23.21,10.75,16.9,27.09,23.01,45.78,24.06,9.26,.52,18.63-.84,27.95-1.36,1.93-.11,3.86-.23,5.8-.34,.2,.46,.4,.91,.61,1.37-.95,.74-1.79,1.88-2.86,2.16-18.03,4.75-35.98,9.83-54.16,13.93-19.69,4.45-39.6,3.18-58.69-2.71-9.72-3-18.92-8.74-27.28-14.75-7.35-5.28-13.22-12.63-19.7-19.11-.9-.9-2.12-1.95-2.26-3.05-.91-6.87-6.23-7.25-11.34-8.1-16.47-2.74-30.95-10.27-44.49-19.51-4.19-2.86-7.95-7.35-10.18-11.94-9.78-20.17-24.71-35.96-41.85-49.68-6.3-5.04-14.28-8.05-21.66-11.64-5.52-2.69-11.31-4.82-16.98-7.21l.44-1.79c1.92,.1,4.08-.33,5.71,.4,9.7,4.38,19.79,7.18,30.15,9.67,18.6,4.47,33.85,15.12,47.6,28.32,10.62,10.19,22.04,19.55,33.87,29.95-1.81-8.62-3.04-16.3-5.07-23.77-5.72-21.06-7.74-42.5-7.5-64.24,.09-8.24,.13-16.5-.35-24.72-.27-4.61-1.65-9.16-2.82-15.29,2.34,1.55,3.69,2.2,4.74,3.17,12.65,11.67,20.98,26.13,27.79,41.79,7.71,17.76,13.75,35.97,17.73,54.9,.19,.89,.46,1.78,.82,2.62,.2,.46,.69,.8,1.6,1.8,1.45-3.67,2.63-7.01,4.07-10.24,4.19-9.38,10.77-16.81,18.43-23.61,20.07-17.83,38.68-37.02,53.45-59.65,1.56-2.4,3.52-4.54,5.29-6.8,.43,.24,.87,.49,1.3,.73-3.33,7.86-6.64,15.73-10,23.57-1,2.32-2.48,4.47-3.22,6.86-3.89,12.62-7.68,25.27-11.39,37.94-2.72,9.29-4.92,18.75-8.03,27.9-1.79,5.25-4.96,10.04-8.06,16.12,4.39-.76,8.11-.83,11.38-2.07,11.98-4.54,23.91-9.25,35.67-14.32,11.08-4.77,17.3-14.13,21.87-24.82,.55-1.3,1.35-2.49,2.19-4.01,2.12,8.21,.53,13.95-6.4,21.74-5.1,5.73-10.32,11.41-15.92,16.64-14.66,13.7-32.19,22.12-51.49,27.1-5.58,1.44-11.11,3.1-16.66,4.66,.09,.74,.18,1.47,.27,2.21Zm96.29,56.89c-1.7-.92-2-1.2-2.32-1.23-.72-.07-1.47-.08-2.18,.01-19,2.45-34.36-4.79-47.58-17.81-5.2-5.13-9.87-11.05-15.8-15.14-16.68-11.5-34.88-10.26-53.28-4.68-5.44,1.65-6.02,3.21-2.02,7.28,6.17,6.27,12.09,12.95,19.04,18.25,7.05,5.38,14.74,10.78,23.02,13.47,11.2,3.63,23.16,5.37,34.94,6.66,15.45,1.68,30.43-1.72,46.19-6.81ZM110.33,10.17c3.68,49.2,9.08,98.25,34.43,143.74,2.34-5.36,3.83-9.87,6.16-13.9,4.14-7.14,4.45-14.45,2.81-22.31-6.24-29.91-14.88-59-28.73-86.36-4.04-7.98-8.49-15.69-14.67-21.18ZM35.22,71.11c-.31,.64-.61,1.29-.92,1.93,.27,.44,.45,1.02,.84,1.29,20.89,14.1,37.3,32.14,48.98,54.58,2.12,4.06,5.51,7.96,9.27,10.57,12.57,8.74,26.25,15.31,41.42,18.27,1.58,.31,3.28,.04,5.42,.04-.68-1.36-.81-1.94-1.17-2.3-16.64-16.64-32.92-33.69-50.13-49.73-9.44-8.8-20.1-16.45-30.88-23.6-6.98-4.63-15.18-7.43-22.83-11.05Zm128.55,59.17l.85,.59c5.71-2.39,11.5-4.58,17.08-7.24,2.73-1.3,5.28-3.2,7.51-5.26,10.58-9.76,14.7-22.96,18.68-36.15,3.7-12.27,7.16-24.62,10.72-36.93,1.38-4.77,2.75-9.54,4.13-14.31-.45-.21-.9-.42-1.35-.62-2.69,3.78-5.37,7.57-8.09,11.33-7.73,10.69-16.29,21-20.22,33.81-4.74,15.43-11.72,29.58-21.05,42.67-2.84,3.98-5.51,8.07-8.26,12.11Zm35.37-76.36c-6.23,5.8-11.4,11.26-17.21,15.92-20.09,16.11-27.07,37.26-24.72,62.59,.74-.44,1.47-.65,1.85-1.14,11-13.81,20.72-28.41,27.35-44.88,4.19-10.42,8.2-20.91,12.73-32.49Zm48.91,50.22c-.4-.47-.81-.95-1.21-1.42-.98,.41-1.95,.86-2.95,1.23-14.2,5.34-28.45,10.58-42.6,16.05-11.43,4.42-22.99,8.63-34.05,13.86-7.65,3.62-12.44,10.66-16.25,18.45,3.47-.82,6.59-2.1,9.33-3.96,9.96-6.74,20.45-12.12,32.32-14.69,15.84-3.42,29.95-10.9,43.42-19.57,4.33-2.79,8-6.6,11.97-9.95Zm14.81,93.66c.35-.96,.71-1.92,1.06-2.88-18.34-2.09-28.72-14.4-39.47-27.46-14.18-17.23-34.02-20.95-55.32-17.42-3.57,.59-6.82,3.08-10.22,4.68,.22,.51,.44,1.02,.65,1.53,1.6-.17,3.2-.31,4.79-.53,22.22-2.98,41.49,1.65,57.01,19.42,5.99,6.86,14.03,12.34,22.02,16.89,5.73,3.26,12.93,3.94,19.48,5.77ZM108.27,16.73c-.64,.1-1.29,.21-1.93,.31,.49,4.61,1.17,9.21,1.44,13.83,.97,16.63,1.51,33.3,2.83,49.9,.47,5.94,3.32,11.67,4.01,17.62,1.42,12.21,4.82,23.75,10.61,34.49,2.34,4.33,5.94,7.98,8.97,11.94,.47-.29,.94-.58,1.41-.87-.19-.99-.18-2.08-.61-2.96-8.38-17.09-13.21-35.21-17.02-53.81-3.93-19.21-8.02-38.28-7.6-58.05,.09-4.12-1.37-8.27-2.12-12.41Z"/>
      <path d="M126.86,186.48c-6.48,10.33-12.42,21.05-19.56,30.9-12.69,17.5-23.15,36.11-30.05,56.58-5.56,16.49-11.6,32.94-15.49,49.85-4.38,19.09-7.35,38.64-4.05,58.41,.59,3.52,1.84,6.93,2.78,10.39-.4,.37-.8,.74-1.2,1.11-1.41-1.19-3.43-2.12-4.09-3.64-1.3-2.98-2.66-6.31-2.57-9.46,.34-12.25,.81-24.53,2.06-36.72,.96-9.43,2.36-18.96,4.95-28.05,4.01-14.05,9.04-27.82,13.96-41.6,2.52-7.05,5.14-14.19,8.76-20.7,7.09-12.76,14.85-25.16,22.47-37.62,5.45-8.9,11.1-17.68,16.72-26.47,1-1.57,2.26-2.97,3.4-4.46,.64,.49,1.27,.98,1.91,1.46Z"/>
      <path d="M151.36,248.09c-.35,5.83-4.33,9.95-7.68,8.88-1.85-.59-3.99-3.15-4.29-5.08-.55-3.6,4.02-8.68,6.8-7.81,2.28,.71,4.05,3.09,5.17,4.02Z"/>
      <path d="M167.67,245.19c-.05-5.75,3.42-9.6,7.29-8.89,1.87,.34,4.31,2.68,4.76,4.53,.84,3.5-3.97,8.7-7.2,7.93-2.13-.51-3.84-2.78-4.85-3.57Z"/>
      <path d="M58.2,155.6c-.66,5.24-1.01,9-5.62,9.39-4.34,.36-5.14-3.08-5.21-6.24-.08-3.65,1.81-6.82,5.72-6.64,1.97,.09,3.83,2.56,5.11,3.49Z"/>
      <path d="M74,179.25c-3.07,2.92-4.97,4.72-6.87,6.53-1.76-1.98-4.86-3.94-4.9-5.96-.04-1.99,2.71-4.96,4.85-5.7,1.26-.43,3.73,2.64,6.92,5.12Z"/>
      <path d="M116.94,274.96c-.93-1.63-3.05-3.96-2.58-4.76,1.5-2.54,3.86-4.62,6.21-6.49,.22-.18,4.09,3.1,3.83,3.65-1.3,2.82-3.4,5.27-5.21,7.86-.75-.09-1.5-.18-2.25-.27Z"/>
      <path d="M78.29,206.17c-2.86,2.8-4.56,4.47-6.27,6.14-1.57-2.14-4.04-4.14-4.38-6.47-.22-1.5,2.66-3.47,4.14-5.23,1.79,1.53,3.58,3.05,6.5,5.55Z"/>
      <path d="M95.02,297.31c-.71-1.59-2.45-3.75-1.94-4.66,1.44-2.59,3.8-4.66,5.79-6.94,1.17,1.54,3.64,3.59,3.27,4.54-1.05,2.73-3.25,5.02-5,7.48-.71-.14-1.42-.28-2.13-.43Z"/>
      <path d="M77.82,328.62c-.85-1.55-2.77-3.58-2.33-4.56,.97-2.18,3.11-3.85,4.77-5.72,1.14,1.36,3.44,3.01,3.19,4.03-.57,2.3-2.39,4.3-3.7,6.42-.64-.05-1.29-.11-1.93-.16Z"/>
      <path d="M63.77,243.37c2.45-2.24,4.1-3.75,5.75-5.26,1.25,1.41,3.78,3.21,3.49,4.15-.67,2.21-2.69,4.01-4.16,5.98-1.4-1.34-2.79-2.68-5.09-4.87Z"/>
      <path d="M74.74,351.72c-2.64,1.67-4.14,3.34-5.6,3.32-1.09-.02-3.16-2.46-2.95-3.45,.32-1.56,2.03-3.67,3.43-3.9,1.14-.19,2.69,2.01,5.13,4.04Z"/>
      <path d="M64.84,266.37c1.14,2.78,2.27,4.2,2.05,5.36-.24,1.28-1.72,2.34-2.66,3.49-.9-1.09-2.59-2.22-2.52-3.25,.09-1.45,1.48-2.81,3.13-5.6Z"/>
      <path d="M73.68,374.79c-1.99,1.28-3.17,2.61-4.35,2.6-.83,0-2.51-2.07-2.31-2.76,.36-1.19,1.76-2.53,2.97-2.83,.73-.18,1.91,1.48,3.69,2.98Z"/>
      <path d="M127.35,179.99c1.79-2.84,3.57-5.69,5.36-8.53,.5,.31,1,.61,1.51,.92-1.63,2.93-3.26,5.87-4.89,8.8-.66-.4-1.31-.79-1.97-1.19Z"/>
    </g>
  </g>
</svg>