<?xml version="1.0" encoding="UTF-8"?>
<svg id="Layer_2" data-name="Layer 2" xmlns="http://www.w3.org/2000/svg" viewBox="0 0 149.16 352.15">
  <g id="Layer_1-2" data-name="Layer 1">
    <g>
      <path d="M76.1,141.83c-1.4,1.93-3.18,3.69-4.13,5.83-2.08,4.7-3.73,9.58-5.55,14.39l-1.56-.3c.2-1.74,.1-3.58,.63-5.2,6.49-19.58,13.66-38.96,19.47-58.74,6.62-22.54,11.47-45.47,5.12-69.1-.18-.66-.07-1.42,.04-2.11,.04-.25,.49-.42,1.85-1.51,1.01,4.04,2.24,7.53,2.7,11.11,2.91,22.6-.41,44.89-3.61,67.18-.05,.33,.15,.69,.21,.92,17.35-6.94,28.29-19.2,31.69-38,1.11-6.14,3.23-12.09,5.6-17.98,1.97,11.38-2.99,21.72-5.73,32.66,5.66-.07,10.4-8.44,14.92-1.39,3.36,5.25,.68,12.18-3.68,13.96-4.1,1.67-7.03-.75-11.69-10.18-1.47,3.39-2.61,6.26-3.94,9.03-3.27,6.81-7.43,12.67-14.43,16.42-5.56,2.97-10.75,6.77-15.67,10.75-2.09,1.69-3.52,4.62-4.47,7.26-2.89,8.01-6.05,16.01-7.88,24.29-2.12,9.62-3.28,19.07,.14,29.32,4.52,13.53,6.67,28.02,4.82,42.45-2.51,19.61-5.94,39.09-8.72,58.67-1.91,13.46-3.67,26.95-5,40.48-.85,8.67-1.01,17.42,2.88,25.68,.57,1.21,.01,2.97-.03,4.47-1.34-.61-2.75-1.1-4.02-1.84-5.14-2.99-4.66-8.36-4.92-13.07-1.17-21.41,2.25-42.28,7.07-63.1,3.55-15.35,6.45-30.98,7.98-46.64,.99-10.15-.74-20.61-1.71-30.89-.74-7.84-4.63-14.47-9.67-20.37-1.13-1.33-2.68-2.68-4.29-3.16-15.35-4.5-23.01-16.13-28.28-30.1-1.6-4.23-4.02-8.23-5.06-12.58-1.21-5.03-2.03-10.37-1.75-15.51,.75-14.2,2.15-28.37,3.37-43.47,.75,1.64,2,3.08,1.96,4.47-.34,11.01-.69,22.03-1.51,33.01-.74,9.95,3.8,18.22,7.16,27.02,4.95,12.94,16.28,19.38,25.98,27.63,2.46,2.09,3.68,5.7,5.32,8.69,1.12,2.06,1.99,4.26,3.37,6.18-1.51-12.81-.04-24.98,4.93-36.73,1.74-5.54,3.16-11.2,5.38-16.52,1.27-3.05,3.35-6.19,5.93-8.16,5.58-4.28,11.7-7.85,17.62-11.68,5.47-3.54,8.8-8.64,10.96-14.08-9.3,6.57-18.78,13.27-28.27,19.97-.3-.34-.6-.68-.9-1.02,1.4-6.8,2.8-13.6,4.2-20.4-3.33,7.4-5.82,14.94-7.83,22.61-2.55,9.75-4.7,19.6-7.03,29.41Zm-12,27.69c-9.81-11.06-25.02-16.19-29.68-31.36,3.49,17.62,17.15,32.06,29.68,31.36Zm65.51-84.05c2.13-1.85,3.68-3.2,5.22-4.54-.45-.53-.89-1.06-1.34-1.6-2.09,1.77-5,3.2-5.94,5.45-.52,1.25,2.01,4.14,3.7,5.71,.41,.38,2.93-1.52,4.48-2.37-.21-.45-.41-.89-.62-1.34-1.57-.38-3.15-.75-5.5-1.32Z"/>
      <path d="M127.81,46.62c-1.66-4.89-3.77-9.67-4.87-14.68-1.33-6.08,.1-7.5,6.26-7.98,.17-.01,.4,.03,.48-.06,1.75-1.93,4.03-4.41,5.76-.81,1.13,2.35,.9,5.86,.12,8.5-1.53,5.2-3.88,10.16-5.89,15.21-.62-.06-1.24-.12-1.86-.18Zm7.18-21.12c-.72-.27-1.44-.54-2.16-.8-1.17,2.85-2.34,5.7-4.07,9.91-.93-3.71-1.46-5.84-1.99-7.97l-1.87,.5c.97,4.37,1.94,8.74,2.91,13.12,.66-.02,1.32-.04,1.98-.06,1.73-4.9,3.47-9.8,5.2-14.7Z"/>
      <path d="M18.25,125.6c-3.01-.17-5.71,.04-8.21-.57-2.86-.7-5.83-1.72-8.22-3.37-3.4-2.35-1.37-4.89,.58-7.23,.35-.42-.11-1.44,.08-2.1,.57-1.91,1.28-3.77,1.94-5.65,1.98,1,4.66,1.5,5.81,3.1,3.13,4.35,5.66,9.14,8.29,13.82,.31,.55-.21,1.57-.28,2Zm-5.79-2.78c.43-.75,.86-1.5,1.29-2.26-2.37-3.69-4.74-7.38-7.12-11.06-.67,.43-1.34,.87-2.01,1.3,1.64,2.68,3.28,5.36,5.46,8.92-2.85-.77-4.67-1.26-6.49-1.75-.18,.6-.35,1.2-.53,1.8,3.13,1.02,6.27,2.03,9.4,3.05Z"/>
      <path d="M111.33,68.31c0,4.6,.21,7.64-.13,10.62-.1,.85-2.25,2.37-2.65,2.15-3.04-1.72-6.29-3.41-8.64-5.9-1.78-1.89-2.65-4.99,1.48-6.3,.7-.22,1.05-1.37,1.74-1.82,1.46-.96,3.5-2.8,4.46-2.37,1.84,.81,3.1,2.96,3.73,3.62Z"/>
      <path d="M21.62,88.72c-6.06,2.1-11.39,2.09-16.39-.66-3.15-1.73-5.35-4.21-1.5-7.63,.51-.45,.9-1.07,1.26-1.66,1.03-1.64,2.36-4.83,2.95-4.69,2.24,.51,4.77,1.65,6.21,3.38,2.74,3.28,4.8,7.14,7.46,11.25Zm-11.86-12.17c-.54,.39-1.07,.78-1.61,1.17,1.22,1.94,2.44,3.88,4.13,6.56-2.79-.25-4.7-.42-6.6-.59-.11,.54-.22,1.08-.33,1.63,3.44,.87,6.88,1.74,10.32,2.61,.32-.59,.63-1.17,.95-1.76l-6.86-9.62Z"/>
      <path d="M86.78,41.8c-5.38,3.7-10.87,4.77-16.82,2.37-1.12-.45-3.03-1.68-2.92-2.06,1.15-3.86,2.29-7.83,4.3-11.26,.45-.77,4.92-.35,6.38,.89,3.33,2.82,5.94,6.49,9.06,10.07Zm-17.13-2.88c-.06,.8-.11,1.59-.17,2.39,3.79,.38,7.58,.76,11.37,1.14,.16-.61,.32-1.23,.48-1.84-2.12-2.58-4.24-5.16-6.37-7.75-.31,.26-.63,.51-.94,.77,1.07,1.53,2.14,3.07,3.7,5.29h-8.07Z"/>
      <path d="M89.99,68.72c-7.23,2.59-12.98,2.67-17.91-2.36-2.15-2.19-3.39-4.37,.26-6.48,.98-.57,1.63-1.78,2.3-2.78,1.87-2.8,4.42-2.89,6.33-.67,3.2,3.72,5.85,7.9,9.03,12.29Zm-16.31-5.45c2.92,3.43,6.12,5.02,11.13,3.81-1.17-2.17-1.99-3.68-2.32-4.3-3.39,.19-5.93,.33-8.81,.49Z"/>
      <path d="M89.09,21.12c-6.77-2.17-12.44-13.04-8.86-18.2C81.77,.71,86.42-.04,89.64,0c1.26,.02,2.54,3.98,3.65,6.23,.26,.52-.12,1.42-.32,2.1-1.27,4.27-2.58,8.53-3.87,12.79Zm-3.6-4.28c.77-.18,1.54-.37,2.32-.55,1.3-4.34,4.18-8.49,1.33-14.9-1.31,3.35-2.06,5.29-3.09,7.94-1.23-2.42-2.05-4.03-2.87-5.63-.65,.25-1.29,.5-1.94,.75,1.42,4.13,2.84,8.27,4.26,12.4Z"/>
      <path d="M28.67,68.17c-5.37-3.78-8.58-11.47-6.89-16.56,.46-1.39,2.58-2.34,4.11-3.19,.64-.36,1.75,.26,2.57,.1,4.84-.97,6.6,.74,5.55,5.68-.41,1.94-1.05,3.84-1.78,5.69-1.04,2.66-2.25,5.25-3.56,8.29Zm-2.65-5.56c.78,.04,1.56,.08,2.34,.12,1.19-3.59,2.39-7.19,3.58-10.78-.55-.18-1.1-.36-1.66-.54-.64,2.18-1.29,4.36-1.93,6.54-.35-.06-.7-.12-1.05-.17-.63-2.15-1.26-4.31-1.89-6.46-.53,.13-1.05,.27-1.58,.4,.73,3.63,1.46,7.26,2.19,10.9Z"/>
      <path d="M130.52,58.84c.39-7.66,4.5-10.67,8.28-13.67,2.35-1.86,8.53,.63,9.84,3.81,1.49,3.6-.38,6.23-3.65,7.15-4.47,1.26-9.15,1.75-14.48,2.71Zm4.19-4.3c7.01,1,9.11,.18,11.58-5.07-2.98,1.48-5.09,2.54-8.08,4.03,.84-2.42,1.32-3.83,1.81-5.24l-.83-.33c-1.43,2.11-2.86,4.22-4.48,6.6Z"/>
      <path d="M95.55,29.16c1.18-2.37,2.15-4.87,3.58-7.08,3.26-5.02,9.74-4.56,11.81,1.08,.51,1.4-1.33,5.03-2.82,5.55-3.72,1.31-7.85,1.42-11.82,2.02l-.75-1.57Z"/>
      <path d="M31.32,85.26c1.6-4.59,2.34-8.14,4.1-11.07,.73-1.22,4.13-2.07,5.47-1.4,2.15,1.07,4.34,3.32,5.02,5.54,.34,1.13-2.27,3.95-4.1,4.77-2.71,1.2-5.91,1.3-10.48,2.17Z"/>
      <path d="M30.4,111.32c2.78-4.01,4.65-7.35,7.2-10.05,.84-.89,4.08-.86,5.04,.03,1.9,1.74,2.97,4.39,4.38,6.66-1.87,1.12-3.62,2.83-5.62,3.22-2.87,.55-5.92,.14-11,.14Z"/>
      <path d="M122.19,53.72c-6.06,1.61-10.8,.68-14.83-2.77-2.53-2.17-3.16-4.8,.21-7.12,.83-.57,1.52-1.43,2.09-2.27,2.45-3.63,4.95-2.59,6.72,.33,2.12,3.5,3.66,7.37,5.81,11.83Zm-13.14-7c-.29,.56-.59,1.11-.88,1.67,2.88,1.37,5.75,2.74,8.63,4.11,.38-.48,.76-.96,1.14-1.44-1.38-2.84-2.76-5.68-4.14-8.52-.37,.15-.74,.3-1.1,.45,.28,1.4,.55,2.8,.92,4.68-1.93-.4-3.25-.68-4.57-.95Z"/>
    </g>
  </g>
</svg>