<?xml version="1.0" encoding="UTF-8"?>
<svg id="Layer_2" data-name="Layer 2" xmlns="http://www.w3.org/2000/svg" viewBox="0 0 61.19 154.97">
  <g id="Layer_1-2" data-name="Layer 1">
    <path d="M26.34,51.62c-1.84,1.62-3.43,3.89-5.57,4.72-3.37,1.3-7.56,2.93-10.55,1.91-2.04-.7-2.71-5.64-3.82-8.74-.93-2.6-1.84-5.24-2.36-7.93-.65-3.37-2.24-7.58-.88-9.99,1.02-1.8,6.39-2.44,9.24-1.62,4.38,1.27,8.27,4.25,13.43,5.65-1.4-1.76-2.9-3.45-4.19-5.3-3.83-5.49-8.6-10.61-11.12-16.66C6.85,4.87,11.56,.13,20.9,1.72c1.55,.26,3.35-.33,4.91-.9,7.09-2.6,13.24,1.14,12.43,8.58-.57,5.2-3,10.32-5.22,15.19-1.97,4.3-1.59,7.66,2.15,11.62,2.01-2.66,3.61-4.98,5.42-7.13,5.71-6.8,11.79-5.88,15.56,2.19,.72,1.53,2.46,2.64,2.96,4.2,.99,3.09,2.82,6.94,1.77,9.38-1.22,2.81-4.89,5.27-8.03,6.34-3.13,1.07-6.92,.34-10.41,.2-5.19-.22-7.55,2.09-7.25,7.32,.17,2.98,.03,5.98,.03,10.49,3.13-2.5,4.69-4.64,6.67-5.14,3.75-.96,8.25-2.27,11.48-.99,2.48,.98,3.92,5.55,5.01,8.79,1.1,3.26,1.96,6.95,1.53,10.27-.54,4.15-1.39,9.26-4.11,11.87-3.6,3.45-8.69,1.66-12.83-1.29-9.2-6.56-9.28-6.54-14.12,3.85-4.01,8.6-7.65,17.39-11.9,25.87-3.92,7.84-2.27,15.66-.4,23.34,1.18,4.84,.06,7.57-4.51,8.8-4.62,1.24-8.68-.3-9.53-5.06-1.08-6.04-1.83-12.43-1.05-18.45,1.37-10.52,5.79-20.02,12.8-28.25,2.78-3.26,4.88-7.1,7.28-10.68-.43-.51-.87-1.03-1.3-1.54-1.85,.58-3.69,1.18-5.55,1.75-4.58,1.4-9.41,2.63-12.86-1.81-3.26-4.19-1.83-8.31,1.51-12.1,1.08-1.22,1.15-3.28,2.08-4.69,1.68-2.54,3.18-5.74,5.62-7.1,3.77-2.1,7.51-.26,10.4,2.87,1.51,1.63,3.05,3.23,4.57,4.84,.62-.15,1.25-.3,1.87-.45,.32-7.2,.64-14.4,.96-21.6-.84-.23-1.68-.45-2.52-.68Zm24.44,37.06c.47-.59,2.25-1.94,2.02-2.71-.57-1.94-1.62-4.26-3.21-5.3-5.17-3.37-5.3-3.81-.66-7.37,.95-.73,1.21-2.37,1.78-3.6-1.35-.44-3.63-1.57-3.9-1.2-2.41,3.22-5.55,6.49-6.31,10.19-.77,3.76,6.07,10.03,10.27,9.99ZM17.21,8.28c-.84,5.65,2.95,14.42,6.29,14.66,5.75,.42,5.68-5.28,7.74-8.65,.49-.8,.87-1.9,.73-2.77-.22-1.37-.92-2.67-1.41-4-.95,.97-2.24,1.78-2.8,2.94-2.05,4.24-3.95,4.65-7.22,1.3-.89-.91-1.77-1.85-3.32-3.48Zm23.12,33.71c.04,.6,.08,1.2,.12,1.79,6.53,3.47,11.97,2.72,13.72-2.52-4.81,.25-9.33,.49-13.84,.72Zm-18.01,2.5c-4.99,.36-7.62,2.34-9.08,5.88-.24,.58,.57,1.59,.9,2.4,2.36-1.66,4.76-3.26,7.04-5.03,.47-.37,.49-1.32,1.14-3.26Zm-3.12,35.61c-4.83,1.91-8.45,3.35-12.08,4.79,5.01,3.1,7.32,2.03,12.08-4.79Z"/>
  </g>
</svg>