<?xml version="1.0" encoding="UTF-8"?>
<svg id="Layer_2" data-name="Layer 2" xmlns="http://www.w3.org/2000/svg" viewBox="0 0 207.89 320.82">
  <g id="Layer_1-2" data-name="Layer 1">
    <g>
      <path d="M110.92,82.57c-6.15,5.1-12.29,10.2-18.44,15.3-.44-.49-.88-.98-1.31-1.47,5.49-5.13,10.97-10.25,16.46-15.38-.13-.32-.27-.63-.4-.95-5.24,1.27-10.52,2.42-15.7,3.93-1.02,.3-1.77,1.92-2.39,3.06-1.07,1.99-1.93,4.1-2.88,6.15-.57-.16-1.15-.33-1.72-.49,.63-2.5,1.27-5,2.2-8.67-3.9,.23-7.41,.44-10.92,.65,1.77-2.96,5.15-3.74,9.53-3.09,2.56,.38,5.35,0,7.92-.56,4.33-.96,8.57-2.35,13.11-3.62-13.97-8.7-23.76-20.32-30.1-34.93,8.62,11.72,16.97,23.68,30.53,30.98-3.61-11.65-3.46-22.93-.34-34.08,1.15,12.23-2.42,25.5,6.81,37.46,4.71-7.29,8.97-13.9,13.24-20.51,.3,.14,.59,.28,.89,.41-3.2,6.21-6.41,12.42-10,19.38,14.04,.07,23.26-8.25,33.55-15.24-3.17,6.2-14.57,13.04-30.85,18.55,5.93,2.46,11.07,3.19,16.39,2,5.3-1.19,10.6-2.47,15.74-4.17,5.13-1.69,10.07-3.95,15.22-5.72-5.74,5.68-13.3,8.42-20.66,10.45-7.49,2.07-15.59,1.97-24.1,2.9,2.57,6.26,5.06,13.03,8.12,19.53,2.81,5.97,2.72,11.98,1.43,18.3-1.37-6.85,.34-14.73-7.41-20.89-1.16,5.15-2.08,9.22-3,13.3-.38,.1-.75,.2-1.13,.3-.35-1.67-1.11-3.38-.96-5,.22-2.29,1.01-4.55,1.77-6.75,.81-2.33,2.92-4.73,2.62-6.84-1.08-7.45-2.96-10.55-7.3-14.32-3.2,5.85-5.07,11.96-5.88,18.34-.62,4.92-.19,9.99-.99,14.86-2.55,15.67-9.69,29.56-17.84,42.91-5.93,9.72-12.5,19.04-18.76,28.56-.66,1.01-1.11,2.16-1.64,3.23,9.08-.69,17.97-2.1,26.81-1.83,9.12,.27,13.75-4.04,16.43-11.89,1.51-4.42,3.26-8.76,4.63-13.22,.92-2.99,1.03-5.73-1.24-8.73-2.12-2.79-1.89-6.55,1.43-9.72,.26,1.68,.26,3.46,.83,5.03,.7,1.95,1.87,3.73,2.84,5.58,1.42-1.04,3.16-1.83,4.19-3.18,2.27-2.96,4.14-6.22,6.25-9.31,.97-1.42,2.1-2.74,3.73-3.67-2.44,7.37-4.85,14.66-11.52,19.44-.95,.68-2.19,1.47-2.49,2.45-2.42,7.83-4.64,15.72-6.91,23.56,4.92,1.11,14.99-4.65,18.62-10.55,2.68-4.36,6.04-8.29,9.09-12.42,.48,.32,.96,.63,1.45,.95-1.77,2.88-3.55,5.75-5.32,8.63,.24,.41,.48,.83,.71,1.24,4.6-1.22,9.2-2.44,13.81-3.67,.23,.46,.46,.93,.69,1.39-3.1,1.6-6.04,3.9-9.33,4.64-5.55,1.25-10.04,3.28-14.5,7.25-4.45,3.96-10.9,5.69-16.64,8.47,3.4,2.82,7.14,5.71,10.61,8.88,1.81,1.65,3,3.97,4.77,5.67,1.13,1.08,2.81,2.22,4.25,2.24,5.68,.06,9.85,2.66,13.65,6.13-.17,.52-.34,1.04-.51,1.57-1.13-.2-2.36-.19-3.38-.64-1.7-.75-3.19-2.02-4.92-2.68-5.76-2.22-10.23,.85-9.83,6.96,.22,3.34,1.27,6.62,1.22,10.77-1-.91-2.74-1.72-2.87-2.74-.6-4.69-1.51-9.55-.82-14.13,.5-3.31,.31-5.76-1.73-8.15-7.85-9.2-17.97-13.01-29.88-12.37-5.6,.3-11.29,.25-16.75,1.32-3.31,.65-6.55,2.73-9.31,4.84-11.1,8.47-16.48,20.75-21.81,33.15-3.32,7.73-7.84,14.93-11.3,22.61-7.17,15.93-14.11,31.96-20.86,48.06-1.92,4.57-2.76,9.58-4.29,14.33-1.22,3.8-4.87,5.08-9.01,3.31-3.52-1.51-2.68-4.22-1.48-6.7,6.46-13.33,13.21-26.53,19.48-39.94,4.62-9.87,8.84-19.94,12.91-30.06,5.35-13.3,13-25.15,21.4-36.67,5.41-7.42,10.1-15.4,14.73-23.34,8.26-14.15,16.44-28.34,24.23-42.74,3.91-7.22,7.43-14.74,10.12-22.48,1.92-5.52,1.96-11.67,3.22-17.46,1.24-5.75,2.95-11.39,4.46-17.08-.23-.33-.45-.66-.68-.99Z"/>
      <path d="M199.09,48.16c3.38,2.35,6.09,4.08,8.57,6.1,.43,.35,.2,2.56-.3,2.83-3.75,2.03-7.64,3.82-11.54,5.56-.33,.15-1.45-.46-1.5-.82-.35-2.66-1.29-5.59-.53-7.96,.69-2.14,3.28-3.66,5.29-5.73Z"/>
      <path d="M61.08,25.06c.73-3.37,2.14-5.01,5.2-5.23,1.22-.09,2.43-.32,3.62-.59,3.77-.82,6.63,1.35,5.61,4.92-1.12,3.94-3.07,7.69-5.05,11.31-.34,.63-3.48,.75-3.83,.18-2.1-3.38-3.75-7.04-5.56-10.6Zm12.07-2.5c-.62-.22-1.23-.45-1.85-.67-.86,2.06-1.73,4.12-2.94,6.99-1.13-2.34-1.86-3.82-2.58-5.31-.46,.2-.92,.41-1.38,.61,1.2,2.94,2.39,5.87,3.59,8.81,.61-.06,1.22-.13,1.83-.19,1.11-3.41,2.22-6.82,3.33-10.23Z"/>
      <path d="M58.62,28.82c-.46,2.59-.93,5.17-1.39,7.76-.59,3.33-2.6,3.33-4.6,1.54-1.81-1.62-3.58-3.57-4.57-5.74-3.1-6.81-.1-11.11,7.25-9.99,1.63,.25,2.77,3.66,4.14,5.61-.28,.28-.55,.55-.83,.83Zm-5.14,6.64c3.99-5.74-2.14-5.21-2.69-7.75-.37,.2-.73,.4-1.1,.6,1.17,2.2,2.33,4.39,3.8,7.15Z"/>
      <path d="M174.62,67.04c.25-.91,.28-2.87,1.24-4.09,1.38-1.75,4-4.51,5.1-4.11,2.62,.95,5.07,3.22,6.63,5.59,.4,.61-2.71,3.68-4.41,5.42-.7,.71-1.96,.85-2.94,1.32-3.56,1.7-5.52,.54-5.62-4.13Z"/>
      <path d="M195.76,68.22c1.7,1.56,4.49,3.88,6.86,6.58,.34,.38-1.08,3.34-2.21,3.79-3.88,1.55-7.96,2.65-12.04,3.58-.74,.17-2.29-1.01-2.7-1.91-1.78-3.91,4.09-12.19,10.09-12.04Zm-7.33,9.16l.94,1.4c3.35-.83,6.7-1.66,10.06-2.49l-.38-1.64c-1.87,.35-3.75,.69-6.37,1.17,.87-2.03,1.36-3.17,1.84-4.31-.35-.24-.7-.48-1.04-.72-1.68,2.19-3.36,4.39-5.03,6.58Z"/>
      <path d="M133.05,48.79c-.42-4.93-1.03-8.74-.98-12.53,.06-4.57,2.67-6.03,6.75-4.21,.83,.37,1.67,.83,2.55,.98,5.16,.88,6.04,2.29,3.79,6.95-2.34,4.85-6.92,6.62-12.11,8.82Zm3.99-14.67c-.68,0-1.36,.01-2.03,.02,.16,3.29,.32,6.57,.53,10.65,5.07-2.11,7.69-4.3,6.65-9.33-1.47,1.61-2.94,3.23-5.14,5.64v-6.98Z"/>
      <path d="M157.16,56.99c.41-2.28,.36-3.48,.84-4.4,1.32-2.47,2.71-6.67,4.36-6.81,3-.26,6.41,1.59,9.21,3.29,.8,.49,.83,4.52-.02,5.1-3.62,2.44-7.65,4.35-11.71,5.99-.48,.19-2.1-2.45-2.68-3.16Zm6.48-3.41c-.29-.3-.57-.59-.86-.89,.29-1.34,.58-2.69,.86-4.03-.45-.1-.89-.21-1.34-.31-.67,2.6-1.33,5.21-2.02,7.92,6.05,.67,8.74-1.23,8.87-6.28-2.06,1.34-3.78,2.46-5.51,3.59Z"/>
      <path d="M182.6,37.85c2.96,1.82,6.69,3.29,9.12,5.95,1.26,1.38-5.93,7.54-9.03,7.28-3.38-.28-4.03-2.97-4.07-5.74-.04-2.92-.13-5.99,3.97-7.49Z"/>
      <path d="M169.1,26.23c.88-1.69,2.22-4.81,4.12-7.55,.57-.82,2.73-.84,4.11-.7,.95,.1,1.81,1.1,2.7,1.72,1.49,1.04,2.97,2.11,4.45,3.16-1.32,1.8-2.38,3.92-4.04,5.32-1.74,1.46-4,2.42-6.17,3.23-3.43,1.28-5.11,.02-5.17-5.18Zm7.55-.41c-.39-2.15-.63-3.49-.87-4.84-.39-.05-.78-.11-1.18-.16-.84,2.35-1.68,4.71-2.52,7.06,.46,.35,.92,.7,1.38,1.05,2.61-1.55,5.22-3.1,7.83-4.66-.26-.4-.51-.81-.77-1.21-1.07,.76-2.14,1.52-3.88,2.75Z"/>
      <path d="M68.76,5.29c.07-4.08,2.85-5.78,9.97-5.17,1.31,.11,3.32,2.63,3.44,4.17,.31,3.96-4.19,11.07-6.33,11.08-2.55,.02-7.14-6.52-7.08-10.07Zm11.15-1.94c-.57-.15-1.15-.3-1.72-.45-.61,1.7-1.21,3.39-2.16,6.04-1.25-2.58-1.98-4.09-2.72-5.6-2.16,3.96-.42,6.32,3.33,9.03,1.23-3.38,2.25-6.2,3.27-9.02Z"/>
      <path d="M92.42,23.22c-2.2,4.53-3.87,8.34-6.02,11.86-.27,.45-4.08-.19-4.6-1.19-1.6-3.06-2.98-6.49-3.33-9.88-.33-3.24,3.95-5.45,9.13-4.67,1.63,.25,2.98,2.33,4.83,3.87Zm-8.9,9.95c3.55-3.96,5.51-6.73,4.59-11.9-1.44,2.32-2.2,3.54-3.18,5.13-1.05-1.29-1.81-2.24-2.58-3.18l-1.31,.5c.71,2.72,1.43,5.44,2.48,9.44Z"/>
      <path d="M97.09,26.79c.01-4.58,1.62-5.59,9.42-5.8,2.43-.07,4.29,.63,4.32,3.59,.03,2.91-5.67,11.28-7.84,11.39-2.25,.12-5.92-5.57-5.91-9.17Zm3.72-.7c-.32,.13-.63,.26-.95,.39,.68,1.87,1.36,3.74,2.03,5.61,.55,.11,1.09,.22,1.64,.33,1.64-2.66,3.28-5.33,4.92-7.99-.63-.39-1.26-.78-1.89-1.17-1.07,1.75-2.14,3.49-3.42,5.57-.87-1.02-1.6-1.88-2.33-2.74Z"/>
      <path d="M150.94,38.1c2.2,1.51,5.29,2.78,6.81,5.09,.63,.95-1.9,4.3-3.42,6.23-1.1,1.41-3,2.16-4.36,3.4-2.2,2.02-4.64,.88-4.59-1.03,.12-4.13,1.39-8.25,2.4-12.32,.13-.52,1.57-.71,3.16-1.36Zm-2.66,7.63c-.09,.42-.32,1.17-.39,1.93-.06,.69,.05,1.39,.16,3.67,3.08-2.92,5.23-4.96,7.38-7l-.91-1.06c-1.85,.73-3.7,1.46-6.23,2.46Z"/>
      <path d="M111.16,38.52c.25-2.87,.44-3.93,.41-5-.21-9.95,2.44-11.79,11.55-7.97,3.04,1.27,3.46,5.46,.18,7.6-3.38,2.19-7.42,3.35-12.14,5.37Zm12.01-9.2c-.84-.82-1.67-1.64-2.51-2.46-.83,1.89-1.66,3.79-2.5,5.68-.43-.32-.87-.65-1.3-.97-.21-1.51-.42-3.01-.64-4.52-.45,0-.91,0-1.36,0,0,1.95-.17,3.94,.15,5.84,.06,.36,2.38,.9,3.13,.47,1.84-1.06,3.37-2.66,5.02-4.03Z"/>
      <path d="M133.6,17.57c1.77,1.14,4.99,2.23,6.51,4.48,1.2,1.77-5.36,8.22-7.93,7.89-3.72-.47-3.85-3.64-3.91-6.44-.06-2.84,.87-5.25,5.33-5.93Z"/>
      <path d="M150.44,34.8c0-2.91-.42-5.91,.2-8.68,.27-1.19,2.73-2.69,4.15-2.64,2.07,.08,4.08,1.43,6.12,2.24-.79,1.75-1.21,3.87-2.46,5.16-1.68,1.73-4.01,2.82-6.06,4.19-.65-.09-1.29-.18-1.94-.27Z"/>
      <path d="M112.14,21.16c-1.56-2.44-3.33-4.22-3.88-6.33-.54-2.05-.31-4.64,.55-6.56,.41-.91,3.08-.84,4.75-1.12,.75-.13,1.6-.2,2.31,.02,1.38,.42,3.39,.73,3.85,1.7,.51,1.08-.02,3.1-.78,4.25-1.53,2.28-3.53,4.25-6.79,8.03Zm-.6-10.7c-.4,.03-.79,.05-1.19,.08,.17,1.38,.15,2.82,.62,4.09,.15,.41,1.92,.8,2.31,.47,1.5-1.3,2.75-2.91,4.09-4.4-.38-.33-.76-.65-1.14-.98-.94,1.25-1.89,2.51-3.16,4.19-.63-1.43-1.08-2.44-1.53-3.46Z"/>
    </g>
  </g>
</svg>