<?xml version="1.0" encoding="UTF-8"?>
<svg id="Layer_2" data-name="Layer 2" xmlns="http://www.w3.org/2000/svg" viewBox="0 0 319.63 112.73">
  <g id="Layer_1-2" data-name="Layer 1">
    <path d="M72.27,37.81c-4.95-2.47-8.72-4.4-12.54-6.23-5.97-2.85-12.08-4.71-18.87-3.25-1.2,.26-2.76-1.17-4.15-1.81,.96-1.22,1.7-3.17,2.93-3.54,12.47-3.83,24.71-3.78,35.98,3.66,2.23,1.47,3.56,4.31,5.85,7.19,4.22-1.08,9.26-2.37,13.73-3.51-5.09-6.21-9.89-12.24-14.89-18.1-2.54-2.98-5.52-5.58-8.09-8.53-.6-.69-.65-2.21-.35-3.16,.13-.4,1.89-.67,2.73-.41,2.28,.7,4.56,1.52,6.67,2.63,6.01,3.17,11.86,6.67,17.92,9.73,6.43,3.25,9.8,7.89,7.53,15.79,4.06,.37,7.52,.69,12.09,1.1-1.4-7.51-2.74-14.21-3.83-20.94-.18-1.1,.44-3.15,1.14-3.38,1.22-.4,3.17-.21,4.15,.58,4.49,3.6,8.86,7.37,13.06,11.3,5.28,4.93,3.58,10.49,.41,16.53,4.52,2.07,8.74,4,14.45,6.62-2.43-8.98,3.75-16.74-1.33-24.52-.27-.42,1.65-3.12,2.07-3,1.88,.52,4.46,1.21,5.23,2.66,5.16,9.73,12.51,19.38,2.65,31.12,2.96,1.67,5.34,3.01,6.73,3.79,2.22-5.31,4.28-9.94,6.09-14.66,.96-2.53,1.36-5.28,2.26-7.83,.34-.97,1.33-2.2,2.18-2.35,.9-.15,2.75,.68,2.91,1.37,1.45,6.42,3.34,12.88,3.58,19.38,.12,3.46-2.77,7.03-4.74,11.58,2.49,1.23,5.68,2.79,8.01,3.94,1.96-9.86,3.8-19.4,5.88-28.89,.15-.66,2.13-1.07,3.31-1.28,.39-.07,1.24,.79,1.4,1.36,1.62,5.69,3.2,11.39,4.67,17.12,1.57,6.09-.24,11.44-4.88,17.11,5.31,1.6,9.96,3,14.61,4.41-2.91-7.28-1.56-13.54-.23-19.99,.95-4.62,.78-9.47,1.13-14.63,2.31,.31,4.41,1.45,4.76,5.34,.22,2.45,1.31,4.92,2.44,7.15,3.76,7.43,7.88,14.73,1.93,23.99,5.07,.73,9.27,1.34,13.37,1.94-.9-6.55-2.06-12.21-2.34-17.92-.28-5.76-.83-11.14-6.45-14.83,.49-.48,.98-.95,1.47-1.43,1.65,.99,3.67,1.65,4.9,3.02,4.87,5.45,9.95,10.8,14.02,16.82,2.21,3.27,2.54,7.81,3.95,12.61,2.36-.6,5.53-1.4,8.68-2.19-1.93-5.46-3.47-10.46-5.46-15.27-1.91-4.63-4.28-9.06-6.76-14.23,6.61,.87,12.2,3.66,17,8.23,4.88,4.64,9.23,9.5,5.25,17.45,.59,.21,1.18,.41,1.77,.62,7.01-4.6,14.02-9.19,22.47-14.74-9.24-1.3-14.4-5.96-18.94-11.62-4.41-5.51-8.97-10.91-13.66-16.61h3.42c-.18-1.2-.35-2.39-.57-3.84,.8,.15,1.47,.07,1.68,.34,1.36,1.74,2.67,3.53,3.91,5.36,3.76,5.57,8.45,9.76,15.29,11.24,5.83,1.26,11.21,3.35,13.18,11.33,3.95-4.17,7.1-7.48,11.14-11.74-17.31-2.25-22.54-18.24-34.95-25.08,4.82-1.12,8.18,.51,11.76,3.29,3.62,2.81,8.26,5.34,12.7,5.85,6.3,.72,10.92,2.41,12.98,10.02,3.34-5.04,6.09-9.2,8.85-13.36,.7,.45,1.41,.9,2.11,1.35-5.58,8.8-11.15,17.6-16.93,26.72,.97,.46,2.13,1.04,3.31,1.57,4.67,2.09,7.73,6.59,6.54,11.55-1.44,5.97-.78,11.47,1.26,17.05,.3,.83-.08,1.92-.18,3.48-6.98-9.14-13.58-17.78-20.45-26.78-2.44,1.91-5.47,4.28-9.22,7.21,9.14,6.32,6.85,13.85,3.85,21.82-.9,2.4,.07,5.57,.4,8.36,.26,2.18,.84,4.32,.51,6.67-3.2-10.68-15.8-17.62-11.42-31.95-4.75,2.29-8.59,4.13-12.86,6.19,6.72,9.08,2.58,16.54-2.26,24.21-2.29,3.62-3.47,7.94-5.24,11.9-.76,1.69-1.75,3.28-2.64,4.91-.47-.13-.94-.26-1.41-.4-.09-1.42-.15-2.85-.29-4.27-.67-7.13-1.77-14.25-1.89-21.39-.06-3.87,1.53-7.76,2.45-11.99-2.06,.58-4.72,1.33-8.03,2.27,2.9,8.66-2.95,12.78-8.41,17.47-3.51,3.01-6.12,7.07-9.2,10.61-.87,1.01-1.95,1.84-3.64,2.34,6.2-8.8-2.64-21.26,9.02-28.99-5.48-.99-9.44-3.36-11.49,3.44-.76,2.52-4.52,4.6-7.35,5.92-6.05,2.81-12.38,4.99-18.5,7.38,1.67-7.83,3.81-16.1,13.61-19.78-6.38-3.22-6.49-2.9-10.29,1.65-1.85,2.21-4.74,4.01-7.52,4.9-6.79,2.17-13.78,3.72-20.7,5.46-.59,.15-1.27-.11-2.72-.26,5.74-8.91,13.4-14.27,24.24-17.74-4-2.13-6.54-3.78-9.31-4.8-1.03-.38-3.29,.29-3.82,1.18-2.55,4.29-6.77,5.06-11.01,5.58-4.76,.59-9.02,1.79-12.13,5.8-.58,.75-2,.86-3.04,1.27-.16-1.21-.82-2.63-.41-3.61,3.41-8.21,8.83-14.17,18.54-14.96,.1-.44,.19-.88,.29-1.32-4.06-2.36-8.13-4.73-11.14-6.48-4.99,5.98-9.38,11.41-14.01,16.64-.94,1.06-2.77,1.34-4.19,1.98-.62-1.49-1.7-2.96-1.78-4.48-.43-8.02,3.1-14.53,9.24-20.98-5.22-2.68-9.94-5.11-15.54-7.99,.59,8.47-1.75,15.21-5.37,21.69-.77,1.37,.15,3.61-.05,5.41-.13,1.19-.87,2.3-1.33,3.45-1.09-.62-2.58-.98-3.2-1.91-5.59-8.5-7.13-17.61-3.61-27.33,1.67-4.61-1.23-4.6-5.28-5.1,2.69,7.81-.98,13.52-3.81,19.54-1.05,2.23-.9,4.99-1.56,7.44-.32,1.17-1.27,2.16-1.94,3.23-1.04-.71-2.67-1.2-3.02-2.17-2.66-7.2-5.72-14.33-2.87-22.35,1.77-4.98,.74-6-4.32-5.01-2.47,.48-4.87,1.34-8.12,2.26,1.28,1.78,2.1,2.95,2.94,4.1,2.99,4.13,3.84,8.38,2.31,13.53-1.12,3.77-.68,7.99-1.05,11.99-.11,1.22-.59,2.4-.9,3.59-1.17-.5-2.72-.68-3.45-1.55-3.06-3.66-6.34-7.27-8.62-11.4-1.45-2.64-1.46-6.15-1.78-9.31-.22-2.08,.15-4.22,.32-7.53-4.32,2.08-7.58,3.65-10.89,5.24,5.11,8.77,4.71,11.82-2.06,19.25-1.03,1.13-2.16,2.25-2.87,3.58-2.48,4.65-3.69,4.96-5.94,.27-1.42-2.95-1.42-6.7-1.52-10.11-.05-1.85,1.04-3.73,2.08-7.1-2.85,1.35-4.72,1.66-5.66,2.77-6.06,7.11-14.89,7.2-22.91,9.06-8.9,2.07-17.68-.31-26.37-2.16-1.16-.25-2.03-1.88-3.04-2.87,1.3-.83,2.8-2.56,3.87-2.33,5.46,1.16,8.5-2.24,12.6-4.85,9.12-5.8,19.46-6.97,30.04-3.62,1.73,.55,3.94,1.63,5.28,1.03,6.65-2.95,13.08-6.39,20.47-10.1Zm182.71,63.92c3.23-4.71,6.32-8.53,8.59-12.79,1.37-2.56,2.01-5.83,1.9-8.73-.06-1.53-2.38-4.16-3.8-4.25-5.79-.34-9.45,4.07-8.8,9.95,.54,4.86,1.28,9.69,2.1,15.82Zm-25.64-5.05c4.53-3.67,8.72-6.57,12.2-10.16,1.21-1.25,.66-4.21,.91-6.39-2.03-.15-4.31-.96-6.06-.33-7.02,2.52-8.96,7-7.05,16.89Zm21.81-49.13c1.84,5.82,3.01,10.79,5.04,15.39,.89,2.02,3.9,4.87,5.31,4.55,3.67-.83,4.99-4.59,3.34-7.79-2.71-5.28-6.36-10.03-13.7-12.15Zm56.81,21.84c.97-4.19,1.7-6.65,2.09-9.16,.76-4.86-2.1-9.38-6.6-10-1.61-.22-3.87,.38-4.94,1.47-.78,.8-.7,3.39,.03,4.54,2.61,4.12,5.65,7.97,9.42,13.14ZM46.06,53.53c-8.05-5.53-24.77-2.62-28.11,3.96,9.5,1.36,18.12-1.26,28.11-3.96Zm188.58,2c-.72,.32-1.44,.64-2.16,.96,.56,4.42,.4,9.12,1.97,13.14,.8,2.04,4.73,2.86,7.25,4.23,.63-2.56,2.56-5.82,1.63-7.53-2.17-3.99-5.71-7.25-8.7-10.8Zm49.14,28.58c2.95-5.78,5.92-10.54,3.16-16.13-.78-1.58-2.77-3.12-4.45-3.47-.82-.17-2.79,2.27-3.25,3.83-1.72,5.73,.74,10.45,4.55,15.77Zm-69.44-33.59c-.55,0-1.09-.02-1.64-.02-2.59,4.57-3.64,9.61-1.85,14.63,.7,1.95,3.55,3.12,5.42,4.64,.93-2.19,2.96-4.6,2.57-6.52-.87-4.37-2.93-8.5-4.51-12.72ZM123.43,16.33c-3.32,5.04-1.51,9.35,1.2,13.42,2.08,3.13,4.85,2.8,6.46-.54,2.76-5.74,1.15-8.54-7.66-12.87Zm77.3,72.14c3.62-.86,7.16-1.35,10.41-2.6,2.61-1,4.99-2.76,7.18-4.55,.38-.31-.41-3.32-1.16-3.56-6.25-2.03-14.93,3.51-16.43,10.7Zm-29.79-34.73c7.48-3.7,8.85-11.49,3.28-17.66-5.86,4.84-6.59,10.67-3.28,17.66Zm116.76-30.66c-.36,.23-.72,.46-1.08,.69,3.95,3.09,7.74,6.41,11.91,9.17,2.1,1.39,5.69,3.24,6.89-.31,.57-1.68-2.25-4.74-3.95-6.83-.69-.85-2.5-.85-3.83-1.09-3.3-.59-6.62-1.09-9.93-1.63Zm-14.69,14.62c2.5,5.41,6.35,9.65,11.99,11.53,1.62,.54,3.86-.79,5.82-1.26-1.02-1.54-1.7-3.82-3.13-4.49-4.75-2.23-9.76-3.89-14.68-5.77Zm-79.85,6.23l-2.17,.07c-2.44,4.23-3.88,8.8-2.34,13.7,.5,1.58,2.62,2.66,3.99,3.96,1.01-1.41,2.96-2.9,2.84-4.22-.39-4.54-1.49-9.01-2.32-13.51Zm-66.99-6.21c-4.02,5.16-4.61,13.62-1.45,17.93,5.89-6.83,6.54-13.45,1.45-17.93Zm-41.12,3.9c-3.3,7.06-1.93,12.76,3.39,15.08,3.58-8.03,2.81-11.77-3.39-15.08Zm5.06-27.91c-.55,.71-1.1,1.43-1.65,2.14,3.07,2.7,6.03,5.56,9.29,8.01,.93,.7,2.75,.21,4.17,.26-.28-1.52-.04-3.82-.94-4.43-3.42-2.29-7.21-4.03-10.86-5.98Zm63.52,11.36c-2.57,4.86-3.62,9.1-.76,13.42,.53,.8,1.9,1.42,2.88,1.41,.55,0,1.44-1.4,1.58-2.26,.74-4.45,.42-8.68-3.7-12.57Zm-9.43,39.16c4.53-3.31,8.19-5.62,8.98-10.4,.17-1.02-.32-2.35-.96-3.18-.27-.36-2.04-.13-2.59,.39-3.42,3.21-5.21,7.16-5.42,13.19Zm-35.31-28.3c-3.95,4.67-4.69,9.11-2.26,13.54,5.46-5.07,6.2-9.53,2.26-13.54Zm87.37,38.72c-5.52-2.01-12.42,.4-15.36,5.16,5.48-.58,11.07,.15,15.36-5.16ZM63.93,50.58c-1.41,3.88-2.72,7.48-4.03,11.08,7.11-3.56,8.34-7.45,4.03-11.08Zm109.5,15.89c-.18-.9-.35-1.79-.53-2.69-3.09,.69-6.19,1.38-9.28,2.06,.16,.74,.31,1.48,.47,2.22,3.11-.53,6.23-1.07,9.34-1.6Z"/>
  </g>
</svg>