<?xml version="1.0" encoding="UTF-8"?>
<svg id="Layer_2" data-name="Layer 2" xmlns="http://www.w3.org/2000/svg" viewBox="0 0 149.58 217.56">
  <g id="Layer_1-2" data-name="Layer 1">
    <path d="M77.32,111.53c-10.63,7.79-20.92,14.93-30.71,22.7-3.69,2.93-5.83,7.76-9.39,10.91-2.4,2.12-6.06,2.8-9.16,4.12-.69-3.26-2.7-6.94-1.84-9.72,2.97-9.56,5.75-19.55,10.91-27.96,4.17-6.79,11-12.64,17.91-16.8,5.41-3.26,7.52-5.38,4.29-11.06-3.11-5.48-5.98-11.11-9.92-18.49-11.91,7.98-23.1,15.6-34.45,22.99-2.69,1.75-5.83,3.48-8.9,3.76-1.94,.18-4.81-1.94-5.93-3.82-.63-1.06,.92-4.62,2.42-5.53,12.24-7.48,17.9-18.95,23.45-31.76,2.7-6.22,13.03-11.55,20.55-12.59,8.18-1.13,12.38-4.35,17.09-10.21,7.44-9.27,15.99-17.67,24.3-26.2,1.23-1.26,3.76-1.27,5.68-1.85,.78,.81,1.55,1.63,2.33,2.44-9.87,11.09-19.74,22.18-29.61,33.27,.24,1.23,.49,2.46,.73,3.69,23.32-4.03,33.91,14.83,50.68,22.57-.42,1.22-.85,2.43-1.27,3.65-9.16-.75-18.33-2.2-27.48-2.06-9.24,.14-18.46,1.84-31.26,3.25,6.04,9.57,10.6,17.78,16.34,25.06,1.12,1.42,7.85,.53,10.16-1.45,10.87-9.24,21.84-9.34,34.48-3.81,8.54,3.73,18.02,5.29,30.84,8.87-20.16,8.15-35.19,21.44-56.42,19.47,1.69,12.05,4.14,23.04,4.47,34.08,.23,7.56-1.92,15.37-4.01,22.79-3.53,12.57-7.58,25.01-12.03,37.28-1.18,3.25-4.64,5.66-7.05,8.46-1.86-2.94-4.96-5.72-5.35-8.84-1.28-10.41-2.23-20.95-2.08-31.43,.18-12.55,2.64-24.46,13.08-33.46,11.18-9.63,8.97-24.58-2.87-32.31Zm25.95-.03c6.38-5.82,11.02-10.04,15.65-14.27-4.74-2.69-9.75-7.9-14.17-7.44-5.56,.57-10.63,5.78-15.92,8.99,4.26,3.76,8.53,7.52,14.44,12.72Zm-37.61-4.25c-.06-.74,.14-1.93-.23-2.14-2.38-1.34-6.23-4.11-7.12-3.38-5.38,4.4-10.4,9.37-14.76,14.78-.91,1.13,1.44,4.91,2.35,7.45,.07,.19,.68,.19,1.04,.25,5.55,.96,18.74-11,18.71-16.96Zm8.5,71.42c2.01,.71,4.01,1.42,6.02,2.13,3.2-7.27,6.68-14.44,9.4-21.89,.61-1.68-1.43-4.33-2.26-6.53-1.95,.77-5.15,1.08-5.63,2.39-2.86,7.84-5.09,15.91-7.53,23.9Zm16.33-122.83c.34-1.78,.69-3.57,1.03-5.35-6.11-1.48-12.19-3.61-18.37-4-1.61-.1-3.56,5.25-5.35,8.09,2.61,1.52,5.25,4.35,7.81,4.28,4.99-.14,9.92-1.92,14.88-3.02Zm-62.97,2.9c2.91,3.99,4.45,6.09,5.98,8.2,3.6-4.65,7.52-9.11,10.5-14.12,.57-.97-2.57-4.14-4-6.3-3.91,3.82-7.81,7.65-12.48,12.22Z"/>
  </g>
</svg>