<?xml version="1.0" encoding="UTF-8"?>
<svg id="Layer_2" data-name="Layer 2" xmlns="http://www.w3.org/2000/svg" viewBox="0 0 173.4 405.58">
  <g id="Layer_1-2" data-name="Layer 1">
    <g>
      <path d="M83.8,88.14c-3.27-9.07-6.9-18.03-9.69-27.24-1.85-6.11-2.71-12.55-3.61-18.89-.28-1.93,.77-4.05,1.51-7.5,4.31,14.34,8.15,27.1,11.98,39.85,.6-.11,1.2-.22,1.8-.33-6.8-18.81-4.32-37.46,.9-56.1,4.66,8.19,3.86,17.5,4.06,26.56,.21,9.23,.05,18.46,.65,27.65,1.42-5.58,2.28-11.38,4.36-16.69,5.39-13.75,11.34-27.27,17-40.91,1.68-4.04,3.14-8.17,4.84-12.62,3.44,1.76,3.3,4.27,2.51,6.96-3.14,10.55-6.23,21.11-9.49,31.62-3.41,11-7.31,21.86-10.31,32.96-1.08,4-.17,8.54,.62,12.88,1.47-20.65,13.19-36.68,22.95-53.57,4.75-8.21,8.8-16.82,13.31-25.18,1.49-2.75,3.42-5.26,5.52-7.6-8.73,23.4-17.46,46.8-26.19,70.2l.69,.25c11.65-20.26,23.3-40.52,34.96-60.78,.57,.26,1.13,.51,1.7,.77-5.29,12.49-9.83,25.38-16.07,37.37-6.3,12.11-14.29,23.33-21.82,35.41,16.69-20.54,33.88-40.16,56.96-55.96-1.39,2.46-1.87,3.83-2.76,4.83-15.34,17.2-30.55,34.52-46.21,51.43-4.31,4.65-9.96,8.05-14.71,12.75,21.02-11.49,42.05-22.98,63.07-34.47,.36,.52,.72,1.04,1.08,1.57-5.63,4.56-10.97,9.58-16.97,13.59-9.57,6.39-19.25,12.8-29.52,17.9-7.8,3.87-16.54,5.93-24.98,8.38-2.97,.87-6.99,1.73-9.26,.41-2.34-1.37-3.08-5.42-4.62-8.24-1.38-2.51-2.9-4.94-4.37-7.41l.13,.15Zm43.01-55.24c-10.09,16.86-22.89,32.61-21.88,53.98,12.22-15.99,15.83-35.48,21.88-53.98Zm-29.09,53.42c-.55-12.43-.4-17.03,5.34-30.56,3.69-8.7,6.57-17.77,9.52-26.77,1.61-4.9,2.6-10.01,3.87-15.02-6.37,12.09-11.72,24.49-16.91,36.96-1.69,4.06-3.46,8.19-4.32,12.47-1.57,7.82-1.44,15.64,2.5,22.92Zm-9.07-59.45c-9.55,15.15-3.15,45.96,3.22,55.56-6.06-10.55-3.13-21.85-3.21-32.9-.05-7.55-.01-15.11-.01-22.66Zm21.73,64.31c18.65-13.08,31.54-31.63,46.76-47.96-.47-.45-.95-.89-1.42-1.34-15.11,16.43-30.22,32.87-45.33,49.3Zm50.67-19.8c-.21-.39-.42-.78-.63-1.17-16.81,9.45-33.63,18.9-50.44,28.35,19.31-4.83,34.91-16.54,51.07-27.18Zm-41.85-.25c.64,.37,1.29,.74,1.93,1.11,7.4-12.88,14.8-25.76,22.2-38.64-.62-.36-1.25-.72-1.87-1.07-7.42,12.87-14.84,25.73-22.26,38.6Zm-26.18,30.55c.42-.19,.84-.38,1.26-.56-3.82-8.73-7.64-17.45-11.46-26.18-.5,.22-.99,.44-1.49,.66,3.9,8.69,7.79,17.39,11.69,26.08Zm4.87-.89c2.09-.96,5.02-2.31,7.94-3.66-.59,.46-1.19,.92-1.78,1.37-1.31-2-2.61-4-3.55-5.43-.07,.18-.51,1.38-.96,2.58-1.36-1.15-2.72-2.29-4.2-3.54,.86,2.92,1.67,5.7,2.55,8.67Zm-23.98-54.09l-1.45,.33c1.76,6.46,3.53,12.93,5.29,19.39,.6-.18,1.21-.35,1.81-.53-1.89-6.4-3.77-12.8-5.66-19.19Z"/>
      <path d="M39.42,142.84c5.14,10.13,9.71,19.14,14.49,28.55h34.73c-.93,5.52-4.74,4.89-7.9,4.97-8.47,.22-16.95,.04-25.4,.49-2.01,.11-4.64,1.54-5.77,3.19-14.46,21.2-27.83,42.97-37.45,66.98-10.13,25.3-10.78,51.39-7.51,77.7,3.15,25.29,7.68,50.41,11.55,75.61,.23,1.5,.03,3.07,.03,5.25-5.01-2-4.31-5.81-4.77-8.87-1.96-13.28-3.66-26.6-5.62-39.87C2.61,335.14-.22,313.51,.01,291.42c.2-18.63,6.17-35.28,12.91-52.03,8.9-22.11,22.07-41.66,36-60.75,1.94-2.65,1.52-4.25-.57-6.52-6.25-6.78-10.74-20.89-8.93-29.28Zm8.53,25.91c.7-.29,1.4-.57,2.1-.86-2.07-4.61-4.13-9.23-6.2-13.84-.62,.28-1.24,.56-1.87,.84,1.99,4.62,3.98,9.24,5.97,13.86Z"/>
      <path d="M69.23,108.85c3.54,6.87,7.07,13.74,10.61,20.62-.28,.16-.56,.33-.84,.49-8.07-12.97-16.14-25.94-24.21-38.9-.57,.36-1.15,.71-1.72,1.07,4.97,14.22,12.53,26.98,22.66,39.08-1.58-.59-2.77-1.04-4.2-1.58,1.43,3.72,2.75,7.14,4.24,10.99,20.22-2.68,41.77,2.88,61.38-8.91,0,.99,.18,1.71-.03,1.85-7.88,5.54-15.37,11.9-25.81,12-10.86,.1-21.72,.47-32.58,.39-1.81-.01-3.96-1.37-5.35-2.72-9.09-8.79-15.09-19.4-18.81-31.5-1.37-4.46-4.14-8.48-6.16-12.75-.44-.93-.43-2.08,.42-3.61l5.24,8.76c.41-.18,.82-.37,1.23-.55-3.61-8.46-7.22-16.92-11.34-26.57,1.71,.92,3.19,1.24,3.83,2.14,6.83,9.69,13.51,19.49,20.28,29.23,.24,.35,.85,.44,1.29,.65l-.13-.16Zm51.74,32.31c-14.51,.67-29.13-.14-43.49,2.48,14.67,1.5,29.24,1.61,43.49-2.48Zm-61.18-25.14c-.67,.4-1.35,.79-2.02,1.19,4.52,7.66,9.05,15.32,13.57,22.98,.63-.37,1.25-.74,1.88-1.1-3.06-8.52-7.92-15.98-13.43-23.06Z"/>
      <path d="M113.36,157.54c-6.15,1.39-12.31,2.78-18.46,4.17l-.05,.77c3.52,.33,7.04,.67,10.83,1.03-4.45,4.72-10.06,6.13-15.94,6.09-10.76-.08-21.51-.6-32.75-.96,4.54-10.51,13.23-11.61,22.21-12.94-3.22-.77-6.44-1.54-9.66-2.31-.13-.59-.26-1.18-.39-1.77,1.53-.65,3.04-1.82,4.59-1.88,9.99-.38,20-.36,29.98-.8,6-.27,11.97-1.14,18.6-1.81-4.37,7.74-12.21,7.6-19.24,9.71,3.37-.21,6.75-.41,10.12-.62l.16,1.32Zm-39.36-6.28c7.93,3.87,33,3.12,38.18,0h-38.18Zm22.88,15.57c-.04-.47-.08-.93-.12-1.4-8.75-1.97-28.88-1.16-32.08,1.4h32.19Zm.15-7.48c-.06-.68-.13-1.37-.19-2.05-5.56,.34-11.13,.69-16.69,1.03,.04,.62,.08,1.23,.12,1.85,5.59-.28,11.17-.55,16.76-.83Z"/>
      <path d="M83.68,88c2.74,7.63,5.48,15.26,8.46,23.52,13.22-5.05,26.38-9.07,38.59-15.03,11.98-5.85,22.98-13.68,35.35-21.21-17.49,27.95-45.36,34.34-73.74,40.17-7.18-16.98-14.35-33.95-21.53-50.92,2.31,16.96,6.71,33.1,16.87,47.11-16.65-17.08-17.02-40.34-23.76-61.18,.45-.23,.9-.46,1.35-.69,3.04,6.05,6.17,12.05,9.11,18.15,3.23,6.7,6.3,13.48,9.43,20.22,0,0-.13-.14-.13-.14Zm71.57-2.49c-9.95,5.41-18.6,10.78-27.8,14.93-9.2,4.15-18.96,7.08-28.47,10.54,.17,.4,.34,.8,.51,1.2,20.22-4.63,40.08-10.02,55.75-26.68Z"/>
      <path d="M80.25,135.04c.67-4.08,2.55-5.63,6.27-5.79,8.13-.36,16.27-.82,24.34-1.84,12.36-1.56,24.2-4.93,34.81-11.81,1.56-1.01,3.23-1.85,4.87-2.72,.25-.13,.65,0,1.39,.04-.09,.75,.1,1.73-.3,2.15-8.58,8.91-17.8,17.04-30.75,18.37-12.09,1.24-24.24,1.84-36.37,2.61-1.27,.08-2.58-.59-4.26-1Zm59.28-12.7c-6.07,1.86-12.02,4.44-18.22,5.43-9.87,1.56-19.89,2.18-29.87,2.97-5.34,.43-6.22,.6-7.88,4.11,19.82-.24,39.13-.45,55.98-12.51Z"/>
      <path d="M69.36,109.01c-3.08-7.32-6.5-14.51-9.16-21.98-3.15-8.84-5.65-17.92-8.43-26.89,.46-.24,.91-.48,1.37-.71,.83,1.24,1.78,2.41,2.47,3.72,8.67,16.31,17.36,32.61,25.89,49,1.77,3.39,2.88,7.13,4.3,10.7,0,0,.1-.14,.1-.14-.74,.06-1.47,.12-2.2,.18-.81-2.38-1.34-4.91-2.49-7.11-5.34-10.21-10.8-20.35-16.34-30.45-1.58-2.88-3.56-5.54-5.36-8.3-.53,.27-1.06,.55-1.59,.82,4.72,10.39,8.96,21.03,14.35,31.05,2.79,5.19,7.65,9.27,11.57,13.85-1.35,4.25-2.92,.61-3.6-.18-3.8-4.45-7.36-9.11-11.01-13.7,0-.01,.12,.15,.12,.15Z"/>
      <path d="M141.51,105.26c-7.58,3.13-14.99,6.77-22.78,9.23-7.69,2.42-15.78,3.56-23.66,5.44-1.63,.39-3.08,1.57-4.61,2.39,.14,.57,.27,1.13,.41,1.7,6.21-.62,12.7-.31,18.58-2.05,10.29-3.04,20.41-6.9,30.18-11.35,3.44-1.57,5.63-5.88,8.38-8.94,2.56-1.77,5.11-3.54,7.92-5.49,.04,.67,.25,1.26,.05,1.48-7.84,8.65-15.88,16.63-27.49,20.74-11.29,4.01-22.69,6.48-34.52,7.13-2.78,.15-6.59,1.45-8.08-2.84,0,0-.1,.14-.1,.14,5.06-2.23,9.92-5.48,15.21-6.49,13.82-2.64,27.61-5.11,40.49-11.08Z"/>
      <path d="M46.62,121.78c5.94,10.89,15.46,19.74,17.97,32.57-.55,.44-1.1,.88-1.65,1.31-1.53-1.68-3.5-3.12-4.51-5.07-4.73-9.12-9.19-18.38-13.74-27.59,.64-.41,1.29-.81,1.93-1.22Z"/>
      <path d="M69,146.48c-2.08-2.93-4.15-5.85-6.68-9.41-.26,1.77-.36,2.48-.48,3.31-7.93-9.4-17.75-28.67-16.04-31.05,8.21,12.07,16.45,24.18,24.68,36.29-.49,.29-.98,.57-1.47,.86Z"/>
      <path d="M57.64,164.39c-8.05-9.09-10.56-19.91-16.31-29.78,9.08,3.22,18.89,20.55,16.31,29.78Zm-2.61-5.54c.61-.28,1.21-.57,1.82-.85-2.06-4.5-4.12-9-6.18-13.5-.68,.31-1.35,.63-2.03,.94,2.13,4.47,4.26,8.94,6.39,13.41Z"/>
    </g>
  </g>
</svg>