<?xml version="1.0" encoding="UTF-8"?>
<svg id="Layer_2" data-name="Layer 2" xmlns="http://www.w3.org/2000/svg" viewBox="0 0 217.6 215.92">
  <g id="Layer_1-2" data-name="Layer 1">
    <g>
      <path d="M55.78,202.92c-4.54-3.32-8.79-7.15-13.68-9.85-10.99-6.06-15.48-16.19-18.43-27.45-.26-.99,.58-2.27,1.19-4.38,9.26,11.4,19.11,20.6,31.76,26.24,.56,.25,1.41-.13,2.43-.26-3.01-3.31-5.82-6.24-8.46-9.33-8.54-9.98-10.09-21.2-5.71-33.41,.18-.5,.28-1.13,.65-1.43,1.13-.95,2.37-1.76,3.56-2.63,.58,1.22,1.47,2.38,1.7,3.65,1.61,8.98,2.06,18.39,7.29,26.19,3.57,5.32,8.25,9.91,12.49,14.77,.35,.4,1.16,.38,2.69,.84-2.11-4.57-3.51-8.68-5.77-12.25-3.56-5.64-3.33-11.52-2.4-17.64,.43-2.87,.53-5.81,1.14-8.65,.93-4.36,1.77-8.8,3.38-12.92,1.71-4.37,5-8.07,4.8-13.25-.04-1,1.92-2.07,2.96-3.12,.93,1.26,2.13,2.42,2.7,3.83,.32,.79-.49,1.99-.6,3.03-.8,7.58-1.78,15.14-2.24,22.74-.25,4.2,.1,8.49,.73,12.66,.91,6.04,2.32,12.01,3.51,18.02,.44,.01,.89,.03,1.33,.04,.47-.65,1.16-1.25,1.38-1.98,.86-2.92,1.85-5.85,2.27-8.85,.75-5.38,3.38-9.51,7.01-13.45,2.82-3.07,4.67-7.01,7.15-10.43,.81-1.12,2.23-1.81,3.38-2.69,.57,1.45,1.94,3.15,1.58,4.31-1.93,6.17-4.31,12.21-6.5,18.3-1.59,4.43-3.33,8.85-2.45,14.48,1.9-.89,3.46-1.28,4.56-2.2,6.27-5.27,12.39-10.72,18.65-16.01,2.41-2.04,4.97-3.95,7.64-5.63,.79-.49,2.66-.43,3.2,.15,.73,.78,.65,2.32,.9,3.53,.02,.11-.06,.26-.14,.37-5.61,8.11-9.94,17.16-17.67,23.72-2.84,2.41-5.26,5.32-8.26,8.4,1.22,.08,1.96,.36,2.44,.13,5.22-2.52,10.39-5.13,15.59-7.67,.87-.43,1.86-.63,2.79-.93,.2,1.09,.66,2.21,.55,3.27-.7,6.89-5.44,11.54-9.45,16.56-.7,.87-1.91,1.4-2.96,1.93-3.46,1.75-7.39,2.89-10.37,5.23-10.62,8.36-22.64,7.45-34.86,6.16-8.6-.91-17-2.16-24.46-7.16-2.46-1.65-5.78-1.95-8.47-3.31-5.27-2.67-10.79-5.13-15.42-8.71-2.77-2.14-4.2-6.14-5.86-9.48-.41-.82,.31-2.68,1.1-3.45,.49-.48,2.28-.11,3.18,.41,4.87,2.86,10.1,5.19,13.55,10.09,1.15,1.63,3.21,2.79,5.09,3.68,4.86,2.33,9.83,4.44,14.81,6.52,.83,.35,1.93,.05,2.9,.05l.12-.8Zm-21.81-26.31c-.46,.35-.92,.71-1.37,1.06,1.37,2.12,2.37,4.68,4.2,6.26,3.66,3.17,8.11,5.46,11.64,8.75,6.55,6.11,14.46,9.6,22.53,12.91,.94,.39,2.04,.39,3.07,.56,.16-.35,.31-.7,.47-1.05-4.81-4.85-8.76-10.77-15.8-12.94-7.99-2.46-14.8-6.83-21.01-12.3-1.24-1.09-2.49-2.17-3.73-3.26Zm88.51-12.61c-1.06,.29-1.64,.28-1.98,.56-7.25,5.94-14.49,11.89-21.7,17.88-.91,.76-1.9,1.59-2.42,2.61-1.7,3.35-3.21,6.79-4.79,10.2,.5,.26,1,.53,1.5,.79,10.8-9.41,22.99-17.48,29.38-32.03Zm-42.9,21.68c-6.11-14.53-5.46-30.04-6.67-45.25-.66,0-1.32-.02-1.98-.02-.49,8.41-3.68,16.66-2.3,25.04,1.25,7.58,5.95,14.01,10.95,20.23Zm39.18,5.53c-6.96-.95-27.03,12.22-28.07,18.42,6.95,1.63,27.24-11.68,28.07-18.42Zm-22.69-32.59c-6.23,2.95-11.62,24.55-6.67,30.34,2.33-10.61,4.47-20.35,6.67-30.34Zm-33.67,24.02c-2.97-4.39-6.64-8.75-9.08-13.72-2.39-4.89-3.53-10.39-5.35-16.01-4.85,7.44,4.37,25.72,14.43,29.73Zm-40.36,6.23c-.41,.51-.82,1.02-1.23,1.52,1.64,3.59,5.35,4.37,8.43,6,.23-.28,.45-.57,.68-.85-2.63-2.22-5.25-4.45-7.88-6.67Z"/>
      <path d="M90.07,38.78c-3.03,10.82-13.05,14.03-18.06,21.97,4.82-2.14,9.65-4.29,14.68-6.53,.21,1.18,.47,1.73,.31,1.9-5.21,5.82-8.03,14.15-17.19,15.81-5.59,1.01-11.11,3.77-16.6,3.61-5.83-.17-11.6-2.79-17.36-4.47-1.48-.43-2.77-1.93-4.2-2.01-4.77-.26-7.58-3.09-9.41-6.93-2.22-4.65-4.17-9.45-5.91-14.29C12.2,36.37,7.48,25.21,.82,14.94c-.63-.98-.56-2.41-.82-3.63,1.14,.71,2.69,1.16,3.34,2.18,4.11,6.48,8,13.1,12,19.64,.98,1.61,2.14,3.11,3.36,4.86,.75-.83,1.25-1.15,1.21-1.38-1-5.79-2.52-11.53-2.96-17.36-.37-4.89,.42-9.88,.95-14.8,.07-.68,1.62-1.21,2.79-2.02-1.12,13.5,4.9,23.78,10.66,34.16,.47-.05,.94-.1,1.42-.15,.27-.89,.85-1.82,.76-2.68-.46-4.32-1.12-8.61-1.65-12.92-.21-1.68-.88-3.65-.29-5.03,2.09-4.84,4.52-9.54,7.12-14.13,.53-.94,2.38-1.14,3.61-1.68,.1,1.2,.33,2.41,.29,3.61-.35,8.95-.84,17.9-1.08,26.86-.05,1.72,.82,3.47,1.27,5.2,.35,.06,.7,.12,1.06,.18,.57-1.19,1.21-2.35,1.69-3.57,4.09-10.36,9.47-19.86,18.15-27.13,.91-.76,1.77-1.82,2.83-2.11,1.26-.35,2.99-.47,3.98,.16,.66,.41,.89,2.54,.45,3.5-3.05,6.6-6.35,13.09-9.53,19.64-.65,1.35-1.18,2.76-1.76,4.14,.26,.25,.52,.5,.77,.76,1.34-.64,2.62-1.46,4.02-1.88,5.77-1.74,11.54-3.51,17.4-4.91,1.14-.27,2.67,1.06,4.02,1.66-.86,1.05-1.62,2.22-2.62,3.12-.87,.79-2.17,1.13-2.98,1.95-6.28,6.39-13.55,11.35-21.36,15.66-1.86,1.03-3.09,3.18-5.3,5.57,5.67,.97,9.77,.79,13.76-1.66,6.19-3.81,12.52-7.41,18.82-11.02,.81-.46,1.88-.49,3.85-.96Zm-48.21,28.19c9.04,1.79,34.39-11.31,38.82-20.39-2.52,.9-5.19,1.78-7.19,3.45-4.97,4.14-10.43,5.8-16.89,5.38-7.03-.45-12.86,4.33-14.73,11.55ZM80.11,28.63c-.27-.37-.54-.75-.8-1.12-5.47-.17-10.03,2.21-14.8,4.62-8.61,4.35-12.4,12.67-17.57,19.88-.33,.46-.21,1.73,.19,2.08,.43,.38,1.68,.45,2.11,.1,1.09-.88,1.92-2.09,2.87-3.16,1.18-1.34,2.2-2.91,3.59-3.98,8.09-6.2,16.26-12.29,24.41-18.41Zm-12.6-21.57c-9.11,3.58-22.27,26.19-20.04,33.75,11.39-8.6,14.13-22.11,20.04-33.75Zm-29,1.18c-3.59,3.44-5.16,6.85-4.72,10.82,.85,7.73,2,15.42,3.15,23.12,.17,1.12,.97,2.14,1.48,3.2,.47-.09,.94-.19,1.41-.28-.43-11.93-.85-23.86-1.31-36.86Zm-4.27,45.18c-1.05-11.02-7.67-19.2-12.22-28.77-2.81,6.95,5.09,25.39,12.22,28.77Zm44.21,7.94c-10.55,3.53-20.63,6.9-30.76,10.29,6.7,4.21,27.64-2.48,30.76-10.29Zm-57.34-14.57l-1.77,1.07c1.89,6.04,3.79,12.1,8.49,16.84,.44,.44,1.17,.86,1.75,.84,1.11-.05,2.47-.12,3.21-.76,.49-.43,.5-2.19,.02-2.83-3.8-5.12-7.78-10.12-11.7-15.16Z"/>
      <path d="M191.8,95.9c.88-1.12,2.02-2.11,2.59-3.37,1.14-2.53,1.93-5.21,2.91-7.81,1.93-5.12,5.05-9.17,9.84-12.05,2.89-1.74,5.41-4.1,8.98-6.87-1.19,8.64-7.27,14.7-8.9,22.31,.3,.29,.6,.57,.9,.86,1.68-1.43,3.25-3.03,5.08-4.24,1.17-.77,2.72-.97,4.11-1.42,.05,1.56,.59,3.3,.08,4.65-3.62,9.79-11.13,16.57-18.52,23.41-.48,.45-1.21,.71-1.54,1.23-3.93,6.18-10.16,7.28-16.53,6.67-5.84-.56-11.69-1.98-17.3-3.75-4.35-1.37-8.37-3.79-12.47-5.9-1.26-.65-2.51-1.62-3.29-2.77-.66-.96-1.07-2.55-.73-3.57,.23-.68,1.95-1.05,3.05-1.19,1.5-.2,3.05-.05,5.5-.05-.99-1.49-1.52-2.4-2.15-3.24-2.28-3-4.72-5.89-6.81-9.01-.55-.83-.09-2.34-.09-3.53,1.17,.38,2.63,.43,3.45,1.18,3.89,3.57,7.53,7.43,11.46,10.95,.97,.87,2.7,.87,4.09,1.27-.44-1.22-.55-2.76-1.37-3.62-2.89-3.04-5.9-6-9.11-8.71-3.4-2.88-6.14-11.31-4.65-15.65,.22-.63,1.12-1.6,1.45-1.51,1.05,.29,2.29,.79,2.92,1.61,3.19,4.22,6.2,8.57,9.28,12.87,.43,.6,.88,1.17,1.32,1.76,.37-.12,.75-.24,1.12-.36-.64-2.56-.87-5.31-1.99-7.63-4.32-8.88-1.19-17.7-.13-26.53,.09-.79,1.25-1.44,1.92-2.16,.67,.72,1.75,1.35,1.95,2.18,1.58,6.81,2.88,13.69,4.51,20.48,1.1,4.6,2.62,9.1,3.93,13.65,.35,1.2,.63,2.42,.94,3.64-.4,.12-.8,.23-1.21,.35-2.93-10.05-5.86-20.1-8.8-30.14-.52,0-1.04-.02-1.56-.03-.34,3.88-1.66,7.97-.84,11.58,1.84,8.1,4.3,16.2,9.81,22.76,1.18,1.41,3.38,2.09,5.24,2.71,.34,.11,1.88-1.68,1.89-2.61,.07-3.7-.1-7.41-.44-11.1-.78-8.65-1.19-17.23,3.12-25.22,.46-.85,1.29-1.49,1.95-2.22,.52,.94,1.27,1.81,1.51,2.82,.98,4.07,1.72,8.19,2.72,12.25,1.72,6.98,.96,13.91-.1,20.86-.19,1.23-.03,2.51-.03,3.77,.31,.15,.62,.3,.92,.45Zm-5.36,6.03c4.87-8.34,4.43-34.55-.41-37.93-2.92,5.31-2.75,31,.41,37.93Zm21.85-25.69c-5.16,1.85-16.42,23.91-15.12,29.88,5.45-9.73,11.49-19.16,15.12-29.88Zm2.1,16.66c-.34-.25-.69-.5-1.03-.74-4.02,4.87-8.04,9.73-12.07,14.6,4.67,.14,12.96-9.67,13.1-13.86Zm-41.16,21.87c.19-.44,.38-.88,.57-1.32-5.42-2.66-10.84-5.33-16.26-7.99,3.64,6.25,9.39,8.32,15.69,9.31Zm-15.01-38.06c-.68,5.54,3.43,10.7,8.84,11.43-1.35-5.02-4.57-8.18-8.84-11.43Z"/>
    </g>
  </g>
</svg>