<?xml version="1.0" encoding="UTF-8"?>
<svg id="Layer_2" data-name="Layer 2" xmlns="http://www.w3.org/2000/svg" viewBox="0 0 58.91 106.3">
  <defs>
    <style>
      .cls-1 {
        fill: #99646c;
      }
    </style>
  </defs>
  <g id="Layer_1-2" data-name="Layer 1">
    <g>
      <path class="cls-1" d="M10.96,29.22v15.18c0,5.39,4.39,9.78,9.78,9.78,3.11,0,5.89-1.46,7.68-3.74v10.31c0,5.05,3.84,9.21,8.76,9.73v6.62c0,4.26-3.47,7.73-7.73,7.73s-7.73-3.47-7.73-7.73v-3.97c0-.57-.46-1.03-1.03-1.03s-1.03,.46-1.03,1.03v3.97c0,5.39,4.39,9.78,9.78,9.78s9.78-4.39,9.78-9.78v-6.62c4.91-.52,8.76-4.68,8.76-9.73v-15.18c0-5.4-4.39-9.78-9.78-9.78s-9.37,3.99-9.75,9.04c0,0,0,.01,0,.02-.23,4.08-3.62,7.28-7.72,7.28s-7.73-3.47-7.73-7.73v-15.18c0-4.26,3.47-7.73,7.73-7.73s7.73,3.47,7.73,7.73c0,.57,.46,1.03,1.03,1.03s1.03-.46,1.03-1.03c0-5.4-4.39-9.78-9.78-9.78s-9.78,4.39-9.78,9.78Zm27.25,8.62c4.26,0,7.73,3.47,7.73,7.73v15.18c0,3.91-2.92,7.15-6.7,7.65v-15.24c0-.57-.46-1.03-1.03-1.03s-1.03,.46-1.03,1.03v15.24c-3.78-.51-6.7-3.74-6.7-7.65v-15.18c0-4.26,3.47-7.73,7.73-7.73Z"/>
      <path class="cls-1" d="M29.46,4.24c.67,0,1.21-.54,1.21-1.21V1.21c0-.67-.54-1.21-1.21-1.21s-1.21,.54-1.21,1.21v1.82c0,.67,.54,1.21,1.21,1.21Z"/>
      <path class="cls-1" d="M29.46,102.06c-.66,0-1.21,.54-1.21,1.21v1.82c0,.67,.54,1.21,1.21,1.21s1.21-.54,1.21-1.21v-1.82c0-.67-.54-1.21-1.21-1.21Z"/>
      <path class="cls-1" d="M57.71,51.94h-1.82c-.67,0-1.21,.54-1.21,1.21s.54,1.21,1.21,1.21h1.82c.67,0,1.21-.54,1.21-1.21s-.54-1.21-1.21-1.21Z"/>
      <path class="cls-1" d="M3.03,54.36c.67,0,1.21-.54,1.21-1.21s-.54-1.21-1.21-1.21H1.21c-.67,0-1.21,.54-1.21,1.21s.54,1.21,1.21,1.21h1.82Z"/>
      <path class="cls-1" d="M2.02,49.89h.2c.51,0,.93-.42,.93-.93V29.46C3.15,16.33,12.81,5.47,25.39,3.51c.46-.07,.8-.46,.8-.92v-.19c0-.57-.51-1.01-1.08-.92C11.53,3.58,1.09,15.3,1.09,29.46v19.5c0,.51,.42,.93,.93,.93Z"/>
      <path class="cls-1" d="M25.39,102.79c-12.58-1.96-22.25-12.82-22.25-25.94v-19.5c0-.51-.42-.93-.93-.93h-.2c-.51,0-.93,.42-.93,.93v19.5c0,14.16,10.44,25.87,24.02,27.97,.57,.09,1.08-.35,1.08-.92v-.19c0-.46-.34-.85-.8-.92Z"/>
      <path class="cls-1" d="M56.89,56.41h-.2c-.51,0-.93,.42-.93,.93v19.5c0,13.12-9.67,23.98-22.25,25.94-.46,.07-.8,.46-.8,.92v.19c0,.57,.51,1.01,1.08,.92,13.58-2.1,24.02-13.81,24.02-27.97v-19.5c0-.51-.42-.93-.93-.93Z"/>
      <path class="cls-1" d="M33.52,3.51c12.58,1.96,22.25,12.82,22.25,25.94v19.5c0,.51,.42,.93,.93,.93h.2c.51,0,.93-.42,.93-.93V29.46c0-14.16-10.44-25.87-24.02-27.97-.57-.09-1.08,.35-1.08,.92v.19c0,.46,.34,.85,.8,.92Z"/>
    </g>
  </g>
</svg>