<?xml version="1.0" encoding="UTF-8"?>
<svg id="Layer_2" data-name="Layer 2" xmlns="http://www.w3.org/2000/svg" viewBox="0 0 170.08 144.72">
  <defs>
    <style>
      .cls-1 {
        fill: #99646c;
      }
    </style>
  </defs>
  <g id="Layer_1-2" data-name="Layer 1">
    <g>
      <g>
        <path class="cls-1" d="M63.57,29.22v15.18c0,5.39,4.39,9.78,9.78,9.78,3.11,0,5.89-1.46,7.68-3.74v10.31c0,5.05,3.84,9.21,8.76,9.73v6.62c0,4.26-3.47,7.73-7.73,7.73s-7.73-3.47-7.73-7.73v-3.97c0-.57-.46-1.03-1.03-1.03s-1.03,.46-1.03,1.03v3.97c0,5.39,4.39,9.78,9.78,9.78s9.78-4.39,9.78-9.78v-6.62c4.91-.52,8.76-4.68,8.76-9.73v-15.18c0-5.4-4.39-9.78-9.78-9.78s-9.37,3.99-9.75,9.04c0,0,0,.01,0,.02-.23,4.08-3.62,7.28-7.72,7.28s-7.73-3.47-7.73-7.73v-15.18c0-4.26,3.47-7.73,7.73-7.73s7.73,3.47,7.73,7.73c0,.57,.46,1.03,1.03,1.03s1.03-.46,1.03-1.03c0-5.4-4.39-9.78-9.78-9.78s-9.78,4.39-9.78,9.78Zm27.25,8.62c4.26,0,7.73,3.47,7.73,7.73v15.18c0,3.91-2.92,7.15-6.7,7.65v-15.24c0-.57-.46-1.03-1.03-1.03s-1.03,.46-1.03,1.03v15.24c-3.78-.51-6.7-3.74-6.7-7.65v-15.18c0-4.26,3.47-7.73,7.73-7.73Z"/>
        <path class="cls-1" d="M82.06,4.24c.67,0,1.21-.54,1.21-1.21V1.21c0-.67-.54-1.21-1.21-1.21s-1.21,.54-1.21,1.21v1.82c0,.67,.54,1.21,1.21,1.21Z"/>
        <path class="cls-1" d="M82.06,102.06c-.66,0-1.21,.54-1.21,1.21v1.82c0,.67,.54,1.21,1.21,1.21s1.21-.54,1.21-1.21v-1.82c0-.67-.54-1.21-1.21-1.21Z"/>
        <path class="cls-1" d="M110.31,51.94h-1.82c-.67,0-1.21,.54-1.21,1.21s.54,1.21,1.21,1.21h1.82c.67,0,1.21-.54,1.21-1.21s-.54-1.21-1.21-1.21Z"/>
        <path class="cls-1" d="M55.64,54.36c.67,0,1.21-.54,1.21-1.21s-.54-1.21-1.21-1.21h-1.82c-.67,0-1.21,.54-1.21,1.21s.54,1.21,1.21,1.21h1.82Z"/>
        <path class="cls-1" d="M54.63,49.89h.2c.51,0,.93-.42,.93-.93V29.46c0-13.12,9.67-23.98,22.25-25.94,.46-.07,.8-.46,.8-.92v-.19c0-.57-.51-1.01-1.08-.92-13.58,2.1-24.02,13.81-24.02,27.97v19.5c0,.51,.42,.93,.93,.93Z"/>
        <path class="cls-1" d="M78,102.79c-12.58-1.96-22.25-12.82-22.25-25.94v-19.5c0-.51-.42-.93-.93-.93h-.2c-.51,0-.93,.42-.93,.93v19.5c0,14.16,10.44,25.87,24.02,27.97,.57,.09,1.08-.35,1.08-.92v-.19c0-.46-.34-.85-.8-.92Z"/>
        <path class="cls-1" d="M109.5,56.41h-.2c-.51,0-.93,.42-.93,.93v19.5c0,13.12-9.67,23.98-22.25,25.94-.46,.07-.8,.46-.8,.92v.19c0,.57,.51,1.01,1.08,.92,13.58-2.1,24.02-13.81,24.02-27.97v-19.5c0-.51-.42-.93-.93-.93Z"/>
        <path class="cls-1" d="M86.13,3.51c12.58,1.96,22.25,12.82,22.25,25.94v19.5c0,.51,.42,.93,.93,.93h.2c.51,0,.93-.42,.93-.93V29.46c0-14.16-10.44-25.87-24.02-27.97-.57-.09-1.08,.35-1.08,.92v.19c0,.46,.34,.85,.8,.92Z"/>
      </g>
      <g>
        <path class="cls-1" d="M18.62,132.99l-.61,3.82c-.45,.3-.91,.57-1.38,.83-.48,.26-.99,.48-1.54,.65-.55,.18-1.17,.31-1.84,.4-.67,.09-1.43,.12-2.29,.08-1.51-.04-2.94-.3-4.27-.77-1.33-.48-2.49-1.15-3.48-2.01-.99-.86-1.77-1.89-2.35-3.1-.57-1.21-.86-2.57-.86-4.08s.27-2.88,.82-4.11c.54-1.23,1.3-2.27,2.26-3.14,.96-.87,2.1-1.54,3.42-2.01,1.32-.47,2.75-.71,4.28-.71,1.32,0,2.62,.18,3.89,.53,1.27,.35,2.38,.82,3.34,1.41v3.93h-.61c-.45-1.73-1.26-3.02-2.45-3.86-1.18-.84-2.57-1.26-4.17-1.26-1.13,0-2.15,.23-3.06,.69-.91,.46-1.69,1.1-2.33,1.91s-1.13,1.78-1.47,2.91c-.34,1.13-.51,2.36-.51,3.69s.17,2.55,.51,3.65c.34,1.1,.83,2.05,1.47,2.86s1.42,1.44,2.33,1.91c.91,.47,1.93,.74,3.06,.82,1.79,.09,3.3-.28,4.54-1.12,1.24-.84,2.15-2.15,2.71-3.92h.58Z"/>
        <path class="cls-1" d="M27.82,125.13c.97,0,1.9,.15,2.78,.46,.88,.3,1.66,.75,2.33,1.33s1.2,1.29,1.6,2.13c.4,.84,.6,1.8,.6,2.89s-.2,2.03-.6,2.88c-.4,.85-.93,1.57-1.6,2.16s-1.45,1.04-2.33,1.34c-.88,.3-1.81,.46-2.78,.46s-1.9-.15-2.78-.46c-.88-.3-1.66-.75-2.33-1.34s-1.2-1.31-1.6-2.16-.6-1.81-.6-2.88,.2-2.05,.6-2.89c.4-.84,.93-1.55,1.6-2.13s1.45-1.02,2.33-1.33c.88-.3,1.81-.46,2.78-.46Zm0,12.84c.66,0,1.25-.15,1.76-.44,.51-.3,.95-.71,1.31-1.23,.36-.53,.63-1.16,.82-1.9,.18-.74,.28-1.56,.28-2.47s-.09-1.73-.28-2.47c-.18-.74-.46-1.37-.82-1.9-.36-.53-.8-.94-1.31-1.23-.51-.3-1.1-.44-1.76-.44s-1.25,.15-1.76,.44c-.51,.3-.95,.71-1.31,1.23s-.63,1.16-.82,1.9c-.18,.74-.28,1.56-.28,2.47s.09,1.73,.28,2.47c.18,.74,.46,1.37,.82,1.9s.8,.94,1.31,1.23c.51,.3,1.1,.44,1.76,.44Z"/>
        <path class="cls-1" d="M41.75,136.23c0,.54,.09,.94,.28,1.2,.18,.27,.56,.42,1.12,.46v.61h-5.83v-.61c.56-.04,.94-.19,1.12-.46,.18-.27,.28-.67,.28-1.2v-14.86c0-.53-.09-.93-.28-1.19-.18-.26-.56-.41-1.12-.44v-.61l3.96-1h.47v18.1Z"/>
        <path class="cls-1" d="M52.21,125.13c.97,0,1.9,.15,2.78,.46,.88,.3,1.66,.75,2.33,1.33s1.2,1.29,1.6,2.13c.4,.84,.6,1.8,.6,2.89s-.2,2.03-.6,2.88c-.4,.85-.93,1.57-1.6,2.16s-1.45,1.04-2.33,1.34c-.88,.3-1.81,.46-2.78,.46s-1.9-.15-2.78-.46c-.88-.3-1.66-.75-2.33-1.34s-1.2-1.31-1.6-2.16-.6-1.81-.6-2.88,.2-2.05,.6-2.89c.4-.84,.93-1.55,1.6-2.13s1.45-1.02,2.33-1.33c.88-.3,1.81-.46,2.78-.46Zm0,12.84c.66,0,1.25-.15,1.76-.44,.51-.3,.95-.71,1.31-1.23,.36-.53,.63-1.16,.82-1.9,.18-.74,.28-1.56,.28-2.47s-.09-1.73-.28-2.47c-.18-.74-.46-1.37-.82-1.9-.36-.53-.8-.94-1.31-1.23-.51-.3-1.1-.44-1.76-.44s-1.25,.15-1.76,.44c-.51,.3-.95,.71-1.31,1.23s-.63,1.16-.82,1.9c-.18,.74-.28,1.56-.28,2.47s.09,1.73,.28,2.47c.18,.74,.46,1.37,.82,1.9s.8,.94,1.31,1.23c.51,.3,1.1,.44,1.76,.44Z"/>
        <path class="cls-1" d="M72.98,126.85c.12,.37,.11,.76-.03,1.18-.14,.41-.41,.7-.82,.84-.49,.15-.95,.12-1.38-.07-.44-.19-.68-.63-.74-1.31-.06-.52-.22-.84-.5-.98-.27-.14-.61-.17-1.02-.1-.29,.06-.58,.18-.86,.39-.28,.2-.54,.47-.77,.79-.23,.32-.42,.7-.55,1.12-.14,.42-.2,.89-.2,1.38v6.17c0,.54,.09,.93,.28,1.19,.18,.26,.55,.41,1.09,.44v.61h-5.77v-.61c.54-.04,.91-.18,1.09-.44,.18-.26,.28-.65,.28-1.19v-7.89c0-.53-.09-.94-.28-1.2-.18-.27-.55-.42-1.09-.46v-.61l3.85-.97h.46v2.35c.82-1.53,2.09-2.32,3.82-2.35,.68-.02,1.32,.12,1.92,.4,.6,.29,1.01,.72,1.22,1.31Z"/>
        <path class="cls-1" d="M81.25,130.61c.56,.24,1.11,.5,1.65,.79,.53,.29,1,.62,1.4,1,.4,.38,.68,.82,.84,1.33,.16,.51,.15,1.11-.04,1.81-.29,1.07-.92,1.88-1.88,2.42-.96,.54-2.15,.82-3.57,.82-.89,0-1.81-.12-2.74-.36-.93-.24-1.72-.6-2.36-1.08v-3.02h.47c.16,.66,.4,1.23,.73,1.69,.33,.46,.7,.84,1.12,1.13,.42,.3,.87,.51,1.35,.65,.49,.14,.96,.22,1.43,.23,.74,.04,1.38-.08,1.92-.36,.54-.28,.89-.71,1.05-1.3,.12-.44,.09-.83-.07-1.16-.17-.33-.41-.62-.74-.87-.33-.25-.72-.48-1.17-.68-.45-.2-.9-.41-1.37-.61-.7-.31-1.34-.63-1.91-.95-.57-.32-1.04-.69-1.41-1.09-.37-.41-.62-.87-.74-1.4-.13-.53-.09-1.14,.1-1.84,.12-.48,.33-.89,.64-1.22,.31-.33,.68-.6,1.11-.8,.43-.2,.89-.36,1.4-.46,.5-.1,1.01-.15,1.51-.15,.74,0,1.48,.12,2.21,.35,.74,.23,1.43,.59,2.07,1.07v2.68h-.5c-.33-1.25-.8-2.14-1.41-2.67-.61-.53-1.4-.77-2.37-.73-.5,.02-1,.14-1.47,.36-.48,.22-.75,.64-.83,1.25-.06,.41,0,.76,.2,1.07s.46,.58,.8,.83c.34,.25,.73,.48,1.18,.68,.45,.2,.91,.41,1.4,.61Z"/>
        <path class="cls-1" d="M100.45,125.13c.97,0,1.9,.15,2.78,.46,.88,.3,1.66,.75,2.33,1.33s1.2,1.29,1.6,2.13c.4,.84,.6,1.8,.6,2.89s-.2,2.03-.6,2.88c-.4,.85-.93,1.57-1.6,2.16s-1.45,1.04-2.33,1.34c-.88,.3-1.81,.46-2.78,.46s-1.9-.15-2.78-.46c-.88-.3-1.66-.75-2.33-1.34s-1.2-1.31-1.6-2.16-.6-1.81-.6-2.88,.2-2.05,.6-2.89c.4-.84,.93-1.55,1.6-2.13s1.45-1.02,2.33-1.33c.88-.3,1.81-.46,2.78-.46Zm0,12.84c.66,0,1.25-.15,1.76-.44,.51-.3,.95-.71,1.31-1.23,.36-.53,.63-1.16,.82-1.9,.18-.74,.28-1.56,.28-2.47s-.09-1.73-.28-2.47c-.18-.74-.46-1.37-.82-1.9-.36-.53-.8-.94-1.31-1.23-.51-.3-1.1-.44-1.76-.44s-1.25,.15-1.76,.44c-.51,.3-.95,.71-1.31,1.23s-.63,1.16-.82,1.9c-.18,.74-.28,1.56-.28,2.47s.09,1.73,.28,2.47c.18,.74,.46,1.37,.82,1.9s.8,.94,1.31,1.23c.51,.3,1.1,.44,1.76,.44Z"/>
        <path class="cls-1" d="M119.39,120.29c.1,.13,.19,.29,.28,.48,.09,.19,.14,.39,.16,.59,.02,.2,0,.41-.07,.61-.07,.2-.21,.38-.42,.53-.29,.2-.63,.27-1.01,.21-.38-.06-.66-.24-.83-.54-.16-.28-.26-.58-.32-.91s-.14-.62-.23-.86c-.16-.33-.34-.57-.57-.71-.22-.14-.53-.2-.92-.18-.5,.04-.89,.23-1.15,.58s-.37,.77-.34,1.27c.04,.44,.09,.77,.16,.98s.14,.42,.22,.62c.08,.2,.14,.46,.19,.78,.05,.31,.07,.79,.07,1.44v.19h3.61v1h-3.61v9.85c0,.54,.09,.94,.28,1.2s.56,.42,1.12,.46v.61h-5.8v-.61c.54-.04,.91-.19,1.09-.46,.18-.27,.28-.67,.28-1.2v-9.85h-2.51v-1h2.51v-1.11c0-.74,.07-1.43,.2-2.09,.14-.65,.36-1.23,.67-1.73,.31-.5,.73-.9,1.25-1.2,.52-.3,1.17-.47,1.92-.48,.74-.02,1.44,.09,2.1,.33,.66,.24,1.21,.64,1.66,1.19Z"/>
        <path class="cls-1" d="M138.06,119.12v.61c-.54,.04-.91,.18-1.09,.44-.18,.26-.28,.66-.28,1.19v9.88c0,2.64-.51,4.55-1.53,5.74-1.02,1.19-2.54,1.79-4.56,1.79-1.05,0-2.04-.21-2.99-.62-.94-.42-1.63-.98-2.05-1.7-.19-.31-.3-.68-.32-1.09-.02-.41,.06-.75,.23-1.01,.23-.35,.58-.56,1.03-.62s.86,.04,1.21,.32c.33,.26,.49,.56,.48,.9,0,.34,0,.65,.01,.93,.04,.55,.24,1.04,.6,1.47s.95,.64,1.76,.64c1.15,0,1.93-.48,2.36-1.45,.43-.97,.64-2.38,.64-4.22v-10.93c0-.53-.09-.93-.28-1.19-.18-.26-.55-.41-1.09-.44v-.61h5.86Z"/>
        <path class="cls-1" d="M147.12,125.13c.97,0,1.9,.15,2.78,.46,.88,.3,1.66,.75,2.33,1.33s1.2,1.29,1.6,2.13c.4,.84,.6,1.8,.6,2.89s-.2,2.03-.6,2.88c-.4,.85-.93,1.57-1.6,2.16s-1.45,1.04-2.33,1.34c-.88,.3-1.81,.46-2.78,.46s-1.9-.15-2.78-.46c-.88-.3-1.66-.75-2.33-1.34s-1.2-1.31-1.6-2.16-.6-1.81-.6-2.88,.2-2.05,.6-2.89c.4-.84,.93-1.55,1.6-2.13s1.45-1.02,2.33-1.33c.88-.3,1.81-.46,2.78-.46Zm0,12.84c.66,0,1.25-.15,1.76-.44,.51-.3,.95-.71,1.31-1.23,.36-.53,.63-1.16,.82-1.9,.18-.74,.28-1.56,.28-2.47s-.09-1.73-.28-2.47c-.18-.74-.46-1.37-.82-1.9-.36-.53-.8-.94-1.31-1.23-.51-.3-1.1-.44-1.76-.44s-1.25,.15-1.76,.44c-.51,.3-.95,.71-1.31,1.23s-.63,1.16-.82,1.9c-.18,.74-.28,1.56-.28,2.47s.09,1.73,.28,2.47c.18,.74,.46,1.37,.82,1.9s.8,.94,1.31,1.23c.51,.3,1.1,.44,1.76,.44Z"/>
        <path class="cls-1" d="M170.08,125.38v.61c-.43,.06-.73,.18-.92,.37-.18,.19-.37,.5-.57,.93l-5.3,11.9c-.5,1.03-.95,1.89-1.34,2.56s-.75,1.21-1.09,1.61-.68,.69-1.03,.89c-.35,.19-.73,.33-1.14,.4-.45,.09-.98,.1-1.6,.03s-1.16-.27-1.6-.58c-.33-.26-.53-.6-.6-1.04-.07-.43,.07-.83,.42-1.18,.33-.31,.71-.43,1.15-.35,.44,.08,.72,.33,.86,.73,.04,.15,.09,.3,.15,.47,.06,.17,.14,.31,.25,.44,.11,.13,.25,.23,.42,.3,.17,.07,.4,.09,.67,.06,.21-.02,.44-.08,.68-.19,.24-.11,.51-.32,.8-.64,.29-.31,.61-.75,.95-1.3,.34-.55,.71-1.29,1.12-2.21l.12-.28-5.3-11.15c-.25-.53-.49-.95-.71-1.23s-.61-.47-1.15-.54v-.61h5.68v.61c-.45,.04-.7,.21-.77,.51s-.01,.66,.16,1.07l3.58,8,3.53-8c.16-.37,.2-.71,.13-1.04-.07-.32-.33-.5-.77-.54v-.61h3.23Z"/>
      </g>
    </g>
  </g>
</svg>